<?xml version="1.0" encoding="UTF-8"?>
<svg version="1.1" xmlns="http://www.w3.org/2000/svg" width="400" height="225">
<path d="M0 0 C132 0 264 0 400 0 C400 74.25 400 148.5 400 225 C268 225 136 225 0 225 C0 150.75 0 76.5 0 0 Z " fill="#F7F8F8" transform="translate(0,0)"/>
<path d="M0 0 C19.8 0 39.6 0 60 0 C60 68.31 60 136.62 60 207 C38.88 207 17.76 207 -4 207 C-4.09023107 180.6011664 -4.16394169 154.20245729 -4.20724869 127.80350876 C-4.22788972 115.54652137 -4.25603981 103.28963646 -4.30175781 91.03271484 C-4.34157833 80.35182384 -4.36742159 69.67100704 -4.37635398 58.99004388 C-4.38157682 53.33250003 -4.39388449 47.67516849 -4.42292023 42.01769257 C-4.45001364 36.69569032 -4.45845726 31.37398841 -4.45243073 26.05192375 C-4.45353368 24.09594276 -4.46152355 22.13995201 -4.4768219 20.18403053 C-4.49665485 17.51820925 -4.49196388 14.8535295 -4.48101807 12.18768311 C-4.49266943 11.40947197 -4.5043208 10.63126083 -4.51632524 9.82946754 C-4.45726927 4.52691753 -4.05163399 4.05163399 0 0 Z " fill="#191A1C" transform="translate(22,18)"/>
<path d="M0 0 C1.1271492 -0.01226624 1.1271492 -0.01226624 2.27706909 -0.02478027 C4.76966554 -0.04963925 7.26220496 -0.06615276 9.75488281 -0.08056641 C10.60609962 -0.08589008 11.45731644 -0.09121376 12.3343277 -0.09669876 C16.84104004 -0.12343435 21.34772465 -0.14280668 25.85449219 -0.15722656 C30.5063317 -0.17386274 35.15746114 -0.21863018 39.80903244 -0.26959801 C43.38817137 -0.30328175 46.96714212 -0.31480526 50.54642487 -0.32045364 C52.26083036 -0.32716456 53.97522485 -0.34238261 55.68947601 -0.36634445 C58.09304824 -0.39802073 60.49471072 -0.39802982 62.8984375 -0.390625 C63.95540329 -0.415233 63.95540329 -0.415233 65.03372192 -0.44033813 C68.75758851 -0.39352129 71.22844251 0.21550981 74.14956665 2.44064331 C76.77160675 5.26128727 77.45871032 6.08136402 77.45263672 9.81201172 C77.47132309 11.13863831 77.47132309 11.13863831 77.49038696 12.49206543 C77.47196747 13.4348938 77.45354797 14.37772217 77.43457031 15.34912109 C77.43606583 16.81895447 77.43606583 16.81895447 77.43759155 18.31848145 C77.43291925 20.38623178 77.41351529 22.45399441 77.38037109 24.52148438 C77.33316248 27.68251477 77.33925425 30.84017123 77.35253906 34.00146484 C77.34138499 36.01320366 77.32716487 38.0249283 77.30957031 40.03662109 C77.31230453 41.45086365 77.31230453 41.45086365 77.31509399 42.89367676 C77.22288428 47.17146692 77.09792606 49.56653317 74.79541016 53.26513672 C71.16284535 56.61984218 68.12329217 56.35209358 63.40014648 56.36987305 C62.27058784 56.37972984 62.27058784 56.37972984 61.11820984 56.38978577 C58.62079778 56.40953091 56.12344589 56.42118408 53.62597656 56.43115234 C52.7735116 56.43522787 51.92104664 56.4393034 51.0427494 56.44350243 C46.53069932 56.46436847 42.01867971 56.4786678 37.5065918 56.48803711 C32.84579642 56.4991021 28.18547841 56.53350124 23.5248518 56.57320881 C19.94146333 56.59935317 16.35818897 56.60772699 12.77471352 56.61131859 C11.05671274 56.6161903 9.33871725 56.62782095 7.62080956 56.64635658 C5.21483919 56.6707022 2.81010854 56.66979188 0.40405273 56.6628418 C-0.3041864 56.67565186 -1.01242554 56.68846191 -1.74212646 56.70166016 C-6.52393603 56.65137292 -8.93341223 55.57424979 -12.29199219 52.19287109 C-13.43913571 49.89858404 -13.43602692 48.55840699 -13.46899414 46.00610352 C-13.48182938 45.14147995 -13.49466461 44.27685638 -13.50788879 43.3860321 C-13.51527573 42.44959366 -13.52266266 41.51315521 -13.53027344 40.54833984 C-13.53834518 39.58640213 -13.54641693 38.62446442 -13.55473328 37.63337708 C-13.56857829 35.59487717 -13.57929857 33.55635404 -13.5871582 31.51782227 C-13.60436607 28.40319773 -13.64824795 25.28963592 -13.69238281 22.17529297 C-13.7025101 20.19548307 -13.71102609 18.21566414 -13.71777344 16.23583984 C-13.73528152 15.30547409 -13.75278961 14.37510834 -13.77082825 13.41654968 C-13.75653382 9.14576387 -13.68585915 6.82774075 -11.39038086 3.12768555 C-7.75590818 -0.22347164 -4.72437057 0.02823688 0 0 Z " fill="#191A1C" transform="translate(111.2919921875,67.80712890625)"/>
<path d="M0 0 C0.59554688 -0.19207031 1.19109375 -0.38414062 1.8046875 -0.58203125 C6.33477004 -1.44452027 10.35663342 1.53969753 14 4 C18.28846685 8.12681733 19.31140307 12.27124145 19.5 18.125 C19.17307495 24.79762409 17.59789284 28.70897299 12.6875 33.25 C6.96319908 37.79366386 2.28400918 38.21848554 -4.828125 37.6796875 C-7 37 -7 37 -8.296875 34.9453125 C-8.52890625 34.30335938 -8.7609375 33.66140625 -9 33 C-9.33 33 -9.66 33 -10 33 C-11.890625 32.78125 -11.890625 32.78125 -14 32 C-17.69334512 27.10145805 -19.83705684 21.39589443 -19.5078125 15.25 C-18.56096173 11.05472274 -16.35319159 7.55500015 -14 4 C-13.01 4 -12.02 4 -11 4 C-11 3.34 -11 2.68 -11 2 C-3.98313253 -1.37349398 -3.98313253 -1.37349398 0 0 Z " fill="#F7F7F7" transform="translate(331,157)"/>
<path d="M0 0 C0.99 0 1.98 0 3 0 C2.91620766 20.69654909 2.82111441 41.39301857 2.71247292 62.08945274 C2.66229675 71.69861628 2.61585452 81.30777106 2.578125 90.91699219 C2.54524033 99.28990272 2.50542884 107.66274635 2.45720994 116.03558314 C2.43190976 120.47118201 2.410139 124.90673631 2.39665604 129.34238815 C2.38386745 133.51365595 2.36184813 137.68477113 2.33261681 141.85595512 C2.32351585 143.39025286 2.31784496 144.9245752 2.31578636 146.45889854 C2.31248146 148.54718634 2.29705325 150.63503671 2.2784729 152.72323608 C2.27294214 153.89391317 2.26741138 155.06459026 2.26171303 156.27074242 C2 159 2 159 0 161 C0 107.87 0 54.74 0 0 Z " fill="#EEEEEE" transform="translate(82,55)"/>
<path d="M0 0 C2.78828281 0.25038903 5.57993117 0.40834159 8.375 0.5625 C9.11105469 0.60568359 9.84710938 0.64886719 10.60546875 0.69335938 C12.40348068 0.79843799 14.20171958 0.89962093 16 1 C15.67 2.65 15.34 4.3 15 6 C13.68 5.67 12.36 5.34 11 5 C11.33 5.99 11.66 6.98 12 8 C8.25129501 8.25518724 4.50132602 8.47461113 0.75 8.6875 C-0.31347656 8.76033203 -1.37695312 8.83316406 -2.47265625 8.90820312 C-4.00986328 8.99038086 -4.00986328 8.99038086 -5.578125 9.07421875 C-6.52075195 9.13182373 -7.46337891 9.18942871 -8.43457031 9.2487793 C-11.47241731 8.95418793 -12.76180512 8.01483592 -15 6 C-15.66 6.66 -16.32 7.32 -17 8 C-17.33 7.01 -17.66 6.02 -18 5 C-16.02 4.67 -14.04 4.34 -12 4 C-12 2.68 -12 1.36 -12 0 C-7.58034241 -0.94706948 -4.41682696 -0.75002722 0 0 Z " fill="#252627" transform="translate(42,76)"/>
<path d="M0 0 C1.65 0 3.3 0 5 0 C5.66 1.98 6.32 3.96 7 6 C8.32 5.34 9.64 4.68 11 4 C11.75 5.625 11.75 5.625 12 8 C10.0625 11.25 10.0625 11.25 8 14 C12.62 14 17.24 14 22 14 C22.33 14.99 22.66 15.98 23 17 C21.35 17 19.7 17 18 17 C17.67 17.66 17.34 18.32 17 19 C16.34 18.67 15.68 18.34 15 18 C14.67 19.32 14.34 20.64 14 22 C12.68 22.33 11.36 22.66 10 23 C10.875 19.125 10.875 19.125 12 18 C7.38926889 16.70323188 3.66159911 17.28890861 -1 18 C-0.47731534 15.23723823 0.10869587 12.6739124 1 10 C1.66 9.67 2.32 9.34 3 9 C1.68 8.67 0.36 8.34 -1 8 C-0.67 5.36 -0.34 2.72 0 0 Z " fill="#252628" transform="translate(28,121)"/>
<path d="M0 0 C0.680625 0.78375 1.36125 1.5675 2.0625 2.375 C5.51308916 5.45850521 7.56566662 6.04357515 12 7 C12 7.66 12 8.32 12 9 C17.00068836 11.05156446 21.65530118 11.6997803 27 11 C29.5189267 9.68236671 29.5189267 9.68236671 31 8 C31 9.32 31 10.64 31 12 C30.34 12 29.68 12 29 12 C28.7525 12.721875 28.505 13.44375 28.25 14.1875 C26.89016326 17.24713266 25.17082246 19.4673738 23 22 C12.69253048 20.06734947 7.32918569 12.52626851 1.46875 4.35546875 C0 2 0 2 0 0 Z " fill="#BDBDBD" transform="translate(227,188)"/>
<path d="M0 0 C0.88068649 0.00015106 1.76137299 0.00030212 2.66874695 0.00045776 C3.61570938 0.01078033 4.56267181 0.02110291 5.53833008 0.03173828 C6.51071121 0.03456818 7.48309235 0.03739807 8.48493958 0.04031372 C11.59270499 0.05151479 14.70018292 0.07661931 17.80786133 0.10205078 C19.91397696 0.11208067 22.02009711 0.12120651 24.1262207 0.12939453 C29.29104513 0.1514539 34.45565447 0.18598332 39.62036133 0.22705078 C39.62036133 0.55705078 39.62036133 0.88705078 39.62036133 1.22705078 C32.03036133 1.55705078 24.44036133 1.88705078 16.62036133 2.22705078 C16.29036133 2.88705078 15.96036133 3.54705078 15.62036133 4.22705078 C16.94036133 4.55705078 18.26036133 4.88705078 19.62036133 5.22705078 C19.62036133 6.21705078 19.62036133 7.20705078 19.62036133 8.22705078 C17.84968717 8.39540011 16.0788152 8.56166987 14.30786133 8.72705078 C13.32172852 8.81986328 12.3355957 8.91267578 11.31958008 9.00830078 C8.62036133 9.22705078 8.62036133 9.22705078 5.62036133 9.22705078 C4.93286133 7.47705078 4.93286133 7.47705078 4.62036133 5.22705078 C6.05786133 2.97705078 6.05786133 2.97705078 7.62036133 1.22705078 C6.30036133 1.22705078 4.98036133 1.22705078 3.62036133 1.22705078 C3.62036133 2.21705078 3.62036133 3.20705078 3.62036133 4.22705078 C2.63036133 4.55705078 1.64036133 4.88705078 0.62036133 5.22705078 C0.62036133 6.54705078 0.62036133 7.86705078 0.62036133 9.22705078 C-0.69963867 9.55705078 -2.01963867 9.88705078 -3.37963867 10.22705078 C-3.81276367 8.52548828 -3.81276367 8.52548828 -4.25463867 6.78955078 C-4.62588867 5.61392578 -4.99713867 4.43830078 -5.37963867 3.22705078 C-6.03963867 2.89705078 -6.69963867 2.56705078 -7.37963867 2.22705078 C-4.24433638 0.13684925 -3.56132097 -0.02040872 0 0 Z " fill="#F2F2F2" transform="translate(247.379638671875,29.77294921875)"/>
<path d="M0 0 C1.87365234 -0.01160156 1.87365234 -0.01160156 3.78515625 -0.0234375 C4.82542969 0.10804688 5.86570313 0.23953125 6.9375 0.375 C7.5975 1.365 8.2575 2.355 8.9375 3.375 C8.35742188 3.41238281 7.77734375 3.44976562 7.1796875 3.48828125 C2.08658122 3.91690901 -1.53703194 4.8363228 -6.0625 7.375 C-6.7225 7.375 -7.3825 7.375 -8.0625 7.375 C-8.289375 8.014375 -8.51625 8.65375 -8.75 9.3125 C-10.87625833 14.27376944 -13.21865566 19.53115566 -17.0625 23.375 C-19.04296875 23.33203125 -19.04296875 23.33203125 -21.0625 22.375 C-22.36328125 20.01171875 -22.36328125 20.01171875 -23.375 17.0625 C-23.72175781 16.09699219 -24.06851563 15.13148438 -24.42578125 14.13671875 C-25.0625 11.375 -25.0625 11.375 -24.0625 7.375 C-23.4025 10.015 -22.7425 12.655 -22.0625 15.375 C-17.14221199 14.00825333 -15.71762553 11.58657843 -13.0625 7.375 C-12.4025 7.375 -11.7425 7.375 -11.0625 7.375 C-10.959375 6.776875 -10.85625 6.17875 -10.75 5.5625 C-8.96999453 -0.10115378 -5.49167534 -0.03407451 0 0 Z " fill="#D4D4D4" transform="translate(218.0625,184.625)"/>
<path d="M0 0 C2.93804996 -0.08086376 5.87388075 -0.1404283 8.8125 -0.1875 C9.64587891 -0.21263672 10.47925781 -0.23777344 11.33789062 -0.26367188 C12.54155273 -0.27817383 12.54155273 -0.27817383 13.76953125 -0.29296875 C14.87711792 -0.31653442 14.87711792 -0.31653442 16.00708008 -0.34057617 C18.55727485 0.0952344 19.44175849 0.97376263 21 3 C21 3.66 21 4.32 21 5 C20.34 5 19.68 5 19 5 C19.33 6.98 19.66 8.96 20 11 C13.66666667 11 7.33333333 11 1 11 C0.67 9.68 0.34 8.36 0 7 C1.32 6.34 2.64 5.68 4 5 C2.68 4.67 1.36 4.34 0 4 C0 2.68 0 1.36 0 0 Z " fill="#F2F2F2" transform="translate(320,77)"/>
<path d="M0 0 C1.2375 0.185625 2.475 0.37125 3.75 0.5625 C6.80593312 0.95733738 9.03437737 0.94899924 12 0 C12.33 0.33 12.66 0.66 13 1 C13.66 0.67 14.32 0.34 15 0 C15.66 0.66 16.32 1.32 17 2 C17.556875 1.649375 18.11375 1.29875 18.6875 0.9375 C21.53886783 -0.21845993 23.08517222 0.19032562 26 1 C26.33 1.99 26.66 2.98 27 4 C22.8204355 6.78637633 20.85331323 5.79562512 16 5 C15.01 6.485 15.01 6.485 14 8 C15.65 8 17.3 8 19 8 C19 8.99 19 9.98 19 11 C12.73 11 6.46 11 0 11 C0 7 0 7 1.5 5.25 C2.2425 4.63125 2.2425 4.63125 3 4 C2.01 4 1.02 4 0 4 C0 2.68 0 1.36 0 0 Z " fill="#1C1D1F" transform="translate(123,77)"/>
<path d="M0 0 C5.64111973 0.42308398 9.67893471 2.47879148 14 6 C18.24031703 11.19438836 18.57682013 15.56643542 18.3125 22.19921875 C17.70549839 27.63947071 15.59960593 30.63216752 11.6875 34.25 C5.96319908 38.79366386 1.28400918 39.21848554 -5.828125 38.6796875 C-8 38 -8 38 -9.296875 35.9453125 C-9.64492188 34.98238281 -9.64492188 34.98238281 -10 34 C-9.360625 34.165 -8.72125 34.33 -8.0625 34.5 C-2.78967584 35.36086925 2.08474915 35.97800043 6.9375 33.5 C7.618125 33.005 8.29875 32.51 9 32 C9.66 32 10.32 32 11 32 C14.28115444 25.65643476 14.62800095 20.07672708 14 13 C12.47225672 9.11119892 11.23435819 7.61524437 7.5078125 5.7578125 C5.02790185 4.73915232 2.54945024 3.82711172 0 3 C0 2.01 0 1.02 0 0 Z " fill="#232323" transform="translate(332,156)"/>
<path d="M0 0 C0.33 0.66 0.66 1.32 1 2 C2.32 2 3.64 2 5 2 C8.33333333 2 11.66666667 2 15 2 C15 2.99 15 3.98 15 5 C14.360625 5.12375 13.72125 5.2475 13.0625 5.375 C12.381875 5.58125 11.70125 5.7875 11 6 C10.67 6.66 10.34 7.32 10 8 C11.32 8.33 12.64 8.66 14 9 C14 9.99 14 10.98 14 12 C13.31292969 11.98839844 12.62585938 11.97679688 11.91796875 11.96484375 C11.01691406 11.95582031 10.11585938 11.94679688 9.1875 11.9375 C8.29417969 11.92589844 7.40085938 11.91429688 6.48046875 11.90234375 C3.86586209 11.88990033 3.86586209 11.88990033 1 13 C-1.1875 12.0625 -1.1875 12.0625 -3 11 C-2.979375 10.0925 -2.95875 9.185 -2.9375 8.25 C-2.9889755 5.57327412 -3.2215017 3.53011948 -4 1 C-2.68 0.67 -1.36 0.34 0 0 Z " fill="#F5F5F5" transform="translate(225,76)"/>
<path d="M0 0 C0 0.99 0 1.98 0 3 C-2.31 3.33 -4.62 3.66 -7 4 C-7 4.66 -7 5.32 -7 6 C-7.99 6 -8.98 6 -10 6 C-10.433125 6.928125 -10.433125 6.928125 -10.875 7.875 C-12 10 -12 10 -14 12 C-14.14507695 14.74485593 -14.18652423 17.38480543 -14.125 20.125 C-14.11146484 21.25615234 -14.11146484 21.25615234 -14.09765625 22.41015625 C-14.0740687 24.27357254 -14.03819719 26.13682593 -14 28 C-13.34 28 -12.68 28 -12 28 C-9 31.46153846 -9 31.46153846 -9 34 C-10.828125 33.78125 -10.828125 33.78125 -13 33 C-16.69334512 28.10145805 -18.83705684 22.39589443 -18.5078125 16.25 C-17.56096173 12.05472274 -15.35319159 8.55500015 -13 5 C-12.01 5 -11.02 5 -10 5 C-10 4.34 -10 3.68 -10 3 C-3.375 0 -3.375 0 0 0 Z " fill="#D6D6D6" transform="translate(330,156)"/>
<path d="M0 0 C2.5035927 0.05393737 3.91613769 0.14873343 6.1875 1.25 C7.76620236 4.61789837 6.77406482 7.65064052 6.125 11.25 C3.9864515 9.1114515 3.69844937 8.11724686 3.125 5.25 C3.125 6.57 3.125 7.89 3.125 9.25 C2.465 9.25 1.805 9.25 1.125 9.25 C1.125 10.24 1.125 11.23 1.125 12.25 C-0.525 12.25 -2.175 12.25 -3.875 12.25 C-5.0648306 9.8703388 -5.00849966 8.33514265 -5 5.6875 C-5.00386719 4.47900391 -5.00386719 4.47900391 -5.0078125 3.24609375 C-4.76510677 -0.40163054 -3.84753192 0.24822787 0 0 Z " fill="#E4E4E4" transform="translate(209.875,75.75)"/>
<path d="M0 0 C0.33 0.66 0.66 1.32 1 2 C2.32 2 3.64 2 5 2 C7 2 9 2 11 2 C11 3.32 11 4.64 11 6 C10.01 6 9.02 6 8 6 C7.67 6.66 7.34 7.32 7 8 C4.98177083 7.96744792 2.96354167 7.93489583 0.9453125 7.90234375 C-1.08185404 7.87350758 -1.08185404 7.87350758 -3 9 C-3 8.34 -3 7.68 -3 7 C-4.11375 7.020625 -5.2275 7.04125 -6.375 7.0625 C-10 7 -10 7 -12 6 C-12 4.68 -12 3.36 -12 2 C-10.54176788 1.9729957 -9.08339325 1.95360213 -7.625 1.9375 C-6.81289062 1.92589844 -6.00078125 1.91429688 -5.1640625 1.90234375 C-3 2 -3 2 -1 3 C-0.67 2.01 -0.34 1.02 0 0 Z " fill="#E0E0E0" transform="translate(131,29)"/>
<path d="M0 0 C0.66 0.33 1.32 0.66 2 1 C2 1.66 2 2.32 2 3 C2.66 3 3.32 3 4 3 C4.33 2.01 4.66 1.02 5 0 C5.66 0 6.32 0 7 0 C7.33 1.65 7.66 3.3 8 5 C8.99 4.67 9.98 4.34 11 4 C11.33 3.34 11.66 2.68 12 2 C12 2.66 12 3.32 12 4 C12.66 4 13.32 4 14 4 C14 5.98 14 7.96 14 10 C7.57704304 11.35870243 7.57704304 11.35870243 4.6875 9.5625 C3.8521875 8.7890625 3.8521875 8.7890625 3 8 C2.34 8 1.68 8 1 8 C0.67 8.66 0.34 9.32 0 10 C-1.125 2.25 -1.125 2.25 0 0 Z " fill="#202123" transform="translate(19,57)"/>
<path d="M0 0 C6.27 0.33 12.54 0.66 19 1 C19 1.66 19 2.32 19 3 C18.39671875 2.98839844 17.7934375 2.97679688 17.171875 2.96484375 C16.37265625 2.95582031 15.5734375 2.94679688 14.75 2.9375 C13.96109375 2.92589844 13.1721875 2.91429688 12.359375 2.90234375 C10.09308998 2.99614694 8.1711105 3.36758937 6 4 C6.061875 5.423125 6.061875 5.423125 6.125 6.875 C6 10 6 10 4 12 C3.01 11.67 2.02 11.34 1 11 C1.33 10.01 1.66 9.02 2 8 C1.67 8.33 1.34 8.66 1 9 C0.34 8.67 -0.32 8.34 -1 8 C-1.99 8.33 -2.98 8.66 -4 9 C-4.66 8.34 -5.32 7.68 -6 7 C-5.071875 6.6596875 -5.071875 6.6596875 -4.125 6.3125 C-1.3909864 4.91485814 -1.3909864 4.91485814 0 0 Z " fill="#424243" transform="translate(37,62)"/>
<path d="M0 0 C2.6015625 0.0234375 2.6015625 0.0234375 5.625 0.375 C6.62789062 0.48585937 7.63078125 0.59671875 8.6640625 0.7109375 C9.82035156 0.85402344 9.82035156 0.85402344 11 1 C10.67 1.66 10.34 2.32 10 3 C9.34 2.67 8.68 2.34 8 2 C7.67 2.66 7.34 3.32 7 4 C6.67 4.33 6.34 4.66 6 5 C7.98 5 9.96 5 12 5 C12 5.99 12 6.98 12 8 C5.07 8 -1.86 8 -9 8 C-9 7.01 -9 6.02 -9 5 C-7.948125 5.04125 -6.89625 5.0825 -5.8125 5.125 C-2.25989827 5.00852125 -0.15133359 4.52791932 3 3 C1.35 2.67 -0.3 2.34 -2 2 C-1.34 1.34 -0.68 0.68 0 0 Z " fill="#F2F2F2" transform="translate(209,137)"/>
<path d="M0 0 C2.44576827 3.66865241 2.23607254 5.67200343 2 10 C1.67 10.66 1.34 11.32 1 12 C-0.65 12 -2.3 12 -4 12 C-5.96301592 8.49461443 -6.95902388 4.86648272 -8 1 C-5.21136993 -0.39431504 -3.07921132 -0.25660094 0 0 Z " fill="#E4E4E4" transform="translate(313,76)"/>
<path d="M0 0 C-0.99 0.495 -0.99 0.495 -2 1 C-2 2.65 -2 4.3 -2 6 C-3.65 5.67 -5.3 5.34 -7 5 C-7 5.66 -7 6.32 -7 7 C-6.01 7.33 -5.02 7.66 -4 8 C-10.4 9.35384615 -10.4 9.35384615 -13.4375 7.5625 C-13.953125 7.046875 -14.46875 6.53125 -15 6 C-15.66 6.66 -16.32 7.32 -17 8 C-17.33 7.01 -17.66 6.02 -18 5 C-16.02 4.67 -14.04 4.34 -12 4 C-12 2.68 -12 1.36 -12 0 C-7.66726186 -0.92844389 -4.33273814 -0.92844389 0 0 Z " fill="#232324" transform="translate(42,76)"/>
<path d="M0 0 C5.64111973 0.42308398 9.67893471 2.47879148 14 6 C18.85857128 11.95174982 18.44126126 17.53533043 18 25 C17.34 25.33 16.68 25.66 16 26 C15.98582031 25.29875 15.97164063 24.5975 15.95703125 23.875 C15.62673701 17.30482264 14.94160663 11.70893008 10 7 C6.77108377 5.25717518 3.51453369 4.03729926 0 3 C0 2.01 0 1.02 0 0 Z " fill="#202020" transform="translate(332,156)"/>
<path d="M0 0 C1.21236328 0.30744141 1.21236328 0.30744141 2.44921875 0.62109375 C3.51785156 0.89050781 4.58648437 1.15992188 5.6875 1.4375 C7.27111328 1.83775391 7.27111328 1.83775391 8.88671875 2.24609375 C11.5828317 2.89897932 14.2757576 3.47941193 17 4 C14.68721414 8.7472973 14.68721414 8.7472973 11.65234375 9.86328125 C9 10 9 10 6.796875 8.671875 C5.78367188 7.72054687 5.78367188 7.72054687 4.75 6.75 C4.06421875 6.12609375 3.3784375 5.5021875 2.671875 4.859375 C1 3 1 3 0 0 Z " fill="#F8F8F8" transform="translate(237,198)"/>
<path d="M0 0 C2.31 0.66 4.62 1.32 7 2 C7 5.96 7 9.92 7 14 C6.34 14 5.68 14 5 14 C5 14.66 5 15.32 5 16 C3.02 16.33 1.04 16.66 -1 17 C-0.67 16.34 -0.34 15.68 0 15 C0.99 15 1.98 15 3 15 C3 14.01 3 13.02 3 12 C2.34 12 1.68 12 1 12 C0.67 12.66 0.34 13.32 0 14 C0.3125 12.125 0.3125 12.125 1 10 C1.99 9.34 2.98 8.68 4 8 C1.525 7.01 1.525 7.01 -1 6 C-1.042721 4.33388095 -1.04063832 2.66617115 -1 1 C-0.67 0.67 -0.34 0.34 0 0 Z " fill="#333536" transform="translate(107,97)"/>
<path d="M0 0 C7.26 0.33 14.52 0.66 22 1 C21.67 2.32 21.34 3.64 21 5 C13.59760355 5.12886183 6.36040917 4.79725902 -1 4 C-0.67 2.68 -0.34 1.36 0 0 Z " fill="#919294" transform="translate(50,34)"/>
<path d="M0 0 C0.88623047 0.04833984 1.77246094 0.09667969 2.68554688 0.14648438 C3.59755859 0.20255859 4.50957031 0.25863281 5.44921875 0.31640625 C6.84624023 0.3947168 6.84624023 0.3947168 8.27148438 0.47460938 C10.56028228 0.60372105 12.84858061 0.7386604 15.13671875 0.87890625 C15.13671875 1.86890625 15.13671875 2.85890625 15.13671875 3.87890625 C6.88671875 3.87890625 -1.36328125 3.87890625 -9.86328125 3.87890625 C-9.86328125 2.88890625 -9.86328125 1.89890625 -9.86328125 0.87890625 C-6.4602637 0.09237223 -3.48337081 -0.20226024 0 0 Z " fill="#D3D3D3" transform="translate(125.86328125,41.12109375)"/>
<path d="M0 0 C6.15234375 -0.09765625 6.15234375 -0.09765625 8 0 C9 1 9 1 9.0625 3.5625 C9.041875 4.366875 9.02125 5.17125 9 6 C8.34 6 7.68 6 7 6 C7 6.99 7 7.98 7 9 C5.02 9 3.04 9 1 9 C1 7.02 1 5.04 1 3 C0.01 3.66 -0.98 4.32 -2 5 C-1.34 3.35 -0.68 1.7 0 0 Z " fill="#454648" transform="translate(108,76)"/>
<path d="M0 0 C2.97 0.495 2.97 0.495 6 1 C7.32 4.63 8.64 8.26 10 12 C14.75984437 10.20662575 14.75984437 10.20662575 18.125 8.3125 C21 7 21 7 24 8 C23.11957031 8.45890625 22.23914063 8.9178125 21.33203125 9.390625 C20.17058594 10.00421875 19.00914063 10.6178125 17.8125 11.25 C16.66394531 11.85328125 15.51539062 12.4565625 14.33203125 13.078125 C10.9831986 14.88991619 10.9831986 14.88991619 8.25 17.25 C6 19 6 19 3.1875 18.75 C2.465625 18.5025 1.74375 18.255 1 18 C1 17.67 1 17.34 1 17 C2.98 16.34 4.96 15.68 7 15 C7 12.20215289 6.62804225 10.0209322 6 7.3125 C5.814375 6.50425781 5.62875 5.69601563 5.4375 4.86328125 C5.293125 4.24839844 5.14875 3.63351563 5 3 C3.35 3 1.7 3 0 3 C0 2.01 0 1.02 0 0 Z " fill="#C6C6C6" transform="translate(108,175)"/>
<path d="M0 0 C0.33 0.99 0.66 1.98 1 3 C1.99 2.34 2.98 1.68 4 1 C3.67 3.31 3.34 5.62 3 8 C4.98 8 6.96 8 9 8 C9 7.01 9 6.02 9 5 C9.66 5 10.32 5 11 5 C11.33 4.01 11.66 3.02 12 2 C12.125 5.375 12.125 5.375 12 9 C9.57477793 11.42522207 8.8279321 11.29629254 5.5 11.3125 C4.7059375 11.32925781 3.911875 11.34601563 3.09375 11.36328125 C2.4028125 11.24339844 1.711875 11.12351562 1 11 C-1.43769218 7.34346173 -1.23944439 5.30999899 -1 1 C-0.67 0.67 -0.34 0.34 0 0 Z " fill="#404143" transform="translate(106,77)"/>
<path d="M0 0 C6.625 -0.125 6.625 -0.125 10 1 C11.56118428 1.06740865 13.1250252 1.08514456 14.6875 1.0625 C15.49574219 1.05347656 16.30398437 1.04445313 17.13671875 1.03515625 C17.75160156 1.02355469 18.36648437 1.01195313 19 1 C19 2.32 19 3.64 19 5 C13.66666667 5 8.33333333 5 3 5 C3 4.01 3 3.02 3 2 C2.34 2 1.68 2 1 2 C1.33 2.99 1.66 3.98 2 5 C1.34 5 0.68 5 0 5 C0 3.35 0 1.7 0 0 Z " fill="#6D6D6D" transform="translate(161,30)"/>
<path d="M0 0 C2.93804996 -0.08086376 5.87388075 -0.1404283 8.8125 -0.1875 C9.64587891 -0.21263672 10.47925781 -0.23777344 11.33789062 -0.26367188 C12.54155273 -0.27817383 12.54155273 -0.27817383 13.76953125 -0.29296875 C14.87711792 -0.31653442 14.87711792 -0.31653442 16.00708008 -0.34057617 C18.53770199 0.09188953 19.41968594 1.02499774 21 3 C21 3.33 21 3.66 21 4 C14.07 4 7.14 4 0 4 C0 2.68 0 1.36 0 0 Z " fill="#919191" transform="translate(320,77)"/>
<path d="M0 0 C7.75493514 -0.09928082 15.31068715 -0.06059488 23 1 C23 1.66 23 2.32 23 3 C15.41 3 7.82 3 0 3 C0 2.01 0 1.02 0 0 Z " fill="#4F5052" transform="translate(40,88)"/>
<path d="M0 0 C0.69738281 0.05220703 1.39476562 0.10441406 2.11328125 0.15820312 C3.82596203 0.28724072 5.53805066 0.42409614 7.25 0.5625 C7.25 1.5525 7.25 2.5425 7.25 3.5625 C0.98 3.5625 -5.29 3.5625 -11.75 3.5625 C-11.75 2.5725 -11.75 1.5825 -11.75 0.5625 C-7.84519751 -0.79612973 -4.0398224 -0.33219712 0 0 Z " fill="#AAAAAA" transform="translate(321.75,204.4375)"/>
<path d="M0 0 C1.9375 1.8125 1.9375 1.8125 3 4 C2.67 5.32 2.34 6.64 2 8 C-1.96 6.02 -5.92 4.04 -10 2 C-7.89551915 -2.20896169 -3.87702016 -1.05002629 0 0 Z " fill="#F1F1F1" transform="translate(227,188)"/>
<path d="M0 0 C1.32 0.33 2.64 0.66 4 1 C4 1.99 4 2.98 4 4 C5.32 4 6.64 4 8 4 C7.67 2.68 7.34 1.36 7 0 C9.31 0 11.62 0 14 0 C14 1.65 14 3.3 14 5 C13.01 5 12.02 5 11 5 C9.2984375 5.5259375 9.2984375 5.5259375 7.5625 6.0625 C4.30985373 6.91845954 3.02525902 7.21010361 0 6 C0.66 4.35 1.32 2.7 2 1 C1.34 0.67 0.68 0.34 0 0 Z " fill="#7D7D7D" transform="translate(209,98)"/>
<path d="M0 0 C1.67542976 0.28604898 3.34385343 0.61781233 5 1 C4.67 3.31 4.34 5.62 4 8 C4.66 8.33 5.32 8.66 6 9 C3.69 9.33 1.38 9.66 -1 10 C-1.33 9.01 -1.66 8.02 -2 7 C-1.34 7 -0.68 7 0 7 C-0.185625 6.030625 -0.37125 5.06125 -0.5625 4.0625 C-0.706875 3.051875 -0.85125 2.04125 -1 1 C-0.67 0.67 -0.34 0.34 0 0 Z " fill="#9D8D86" transform="translate(321,32)"/>
<path d="M0 0 C1.051875 0.2475 1.051875 0.2475 2.125 0.5 C5.13888194 1.02415338 7.94713625 1.07099683 11 1 C10.01 2.32 9.02 3.64 8 5 C5.03 4.505 5.03 4.505 2 4 C0.95550089 7.13349732 1.06576355 7.98968256 2 11 C1.01 11 0.02 11 -1 11 C-0.67 10.01 -0.34 9.02 0 8 C-0.66 8 -1.32 8 -2 8 C-2.6875 6.25 -2.6875 6.25 -3 4 C-1.5625 1.75 -1.5625 1.75 0 0 Z " fill="#141517" transform="translate(28,83)"/>
<path d="M0 0 C0.99 0.33 1.98 0.66 3 1 C4.73324119 0.91538508 6.46392812 0.76395645 8.1875 0.5625 C9.08855469 0.46066406 9.98960937 0.35882813 10.91796875 0.25390625 C11.60503906 0.17011719 12.29210937 0.08632813 13 0 C13.33 1.32 13.66 2.64 14 4 C12.22932584 4.16834933 10.45845388 4.33461909 8.6875 4.5 C7.70136719 4.5928125 6.71523438 4.685625 5.69921875 4.78125 C3 5 3 5 0 5 C-0.5625 3.0625 -0.5625 3.0625 -1 1 C-0.67 0.67 -0.34 0.34 0 0 Z " fill="#E0E0E0" transform="translate(253,34)"/>
<path d="M0 0 C0.66 0 1.32 0 2 0 C2.33 0.66 2.66 1.32 3 2 C3.66 2.33 4.32 2.66 5 3 C4.67 3.66 4.34 4.32 4 5 C4.66 5 5.32 5 6 5 C6.33 4.01 6.66 3.02 7 2 C7.99 2.33 8.98 2.66 10 3 C9.67 3.99 9.34 4.98 9 6 C7.15234375 6.73046875 7.15234375 6.73046875 4.9375 7.1875 C4.20402344 7.34605469 3.47054687 7.50460938 2.71484375 7.66796875 C1.86599609 7.83232422 1.86599609 7.83232422 1 8 C0.67 7.34 0.34 6.68 0 6 C-0.99 6 -1.98 6 -3 6 C-3 4.68 -3 3.36 -3 2 C-2.01 2 -1.02 2 0 2 C0 1.34 0 0.68 0 0 Z " fill="#8D8D8D" transform="translate(108,29)"/>
<path d="M0 0 C0 0.99 0 1.98 0 3 C-1.175625 2.95875 -2.35125 2.9175 -3.5625 2.875 C-7.72409674 2.86016365 -11.06487667 3.68829222 -15 5 C-15 4.01 -15 3.02 -15 2 C-15.99 2.33 -16.98 2.66 -18 3 C-18 2.01 -18 1.02 -18 0 C-17.06027344 0.01740234 -17.06027344 0.01740234 -16.1015625 0.03515625 C-14.87566406 0.04869141 -14.87566406 0.04869141 -13.625 0.0625 C-12.40683594 0.07990234 -12.40683594 0.07990234 -11.1640625 0.09765625 C-1.91761364 -0.31960227 -1.91761364 -0.31960227 0 0 Z " fill="#8A8A8A" transform="translate(340,142)"/>
<path d="M0 0 C5.61 0 11.22 0 17 0 C17.33 1.32 17.66 2.64 18 4 C12.39 3.67 6.78 3.34 1 3 C0.67 2.01 0.34 1.02 0 0 Z " fill="#949494" transform="translate(135,142)"/>
<path d="M0 0 C0.33 0.66 0.66 1.32 1 2 C2.32 2 3.64 2 5 2 C8.33333333 2 11.66666667 2 15 2 C15 2.99 15 3.98 15 5 C9.06 5 3.12 5 -3 5 C-3.33 3.68 -3.66 2.36 -4 1 C-2.68 0.67 -1.36 0.34 0 0 Z " fill="#858585" transform="translate(225,76)"/>
<path d="M0 0 C1.9375 1.9375 1.9375 1.9375 3 4 C3 4.66 3 5.32 3 6 C3.66 6 4.32 6 5 6 C5.33 7.65 5.66 9.3 6 11 C2.6061365 9.86871217 2.43559394 9.49830647 0.875 6.5 C-0.64336454 3.26017229 -0.64336454 3.26017229 -2 2 C-5.73658685 2.42300983 -9.37653234 2.98542905 -13 4 C-13 3.34 -13 2.68 -13 2 C-8.27465267 -0.88130935 -5.3738859 -1.52091111 0 0 Z " fill="#EAEAEA" transform="translate(178,184)"/>
<path d="M0 0 C2.64 0 5.28 0 8 0 C7 3 7 3 5 4 C5 4.66 5 5.32 5 6 C5.99 6.33 6.98 6.66 8 7 C5.69 7.66 3.38 8.32 1 9 C1 8.34 1 7.68 1 7 C0.34 7 -0.32 7 -1 7 C-0.7525 6.1028125 -0.7525 6.1028125 -0.5 5.1875 C0.1114124 2.88655664 0.1114124 2.88655664 0 0 Z " fill="#141517" transform="translate(120,104)"/>
<path d="M0 0 C1.485 0.99 1.485 0.99 3 2 C3.556875 1.649375 4.11375 1.29875 4.6875 0.9375 C7.53886783 -0.21845993 9.08517222 0.19032562 12 1 C12.33 1.99 12.66 2.98 13 4 C10 6 10 6 7.30078125 5.7578125 C6.31464844 5.54898438 5.32851562 5.34015625 4.3125 5.125 C3.31863281 4.92132813 2.32476562 4.71765625 1.30078125 4.5078125 C0.16189453 4.25644531 0.16189453 4.25644531 -1 4 C-0.67 2.68 -0.34 1.36 0 0 Z " fill="#626365" transform="translate(137,77)"/>
<path d="M0 0 C1.67542976 0.28604898 3.34385343 0.61781233 5 1 C6.125 4.75 6.125 4.75 5 7 C2.625 7.125 2.625 7.125 0 7 C-0.66 6.34 -1.32 5.68 -2 5 C-1.46428571 1.46428571 -1.46428571 1.46428571 0 0 Z " fill="#6B6C6E" transform="translate(28,33)"/>
<path d="M0 0 C1.134375 0.020625 2.26875 0.04125 3.4375 0.0625 C3.4375 2.0425 3.4375 4.0225 3.4375 6.0625 C0.7975 6.0625 -1.8425 6.0625 -4.5625 6.0625 C-4.605221 4.39638095 -4.60313832 2.72867115 -4.5625 1.0625 C-3.5625 0.0625 -3.5625 0.0625 0 0 Z " fill="#D7D7D7" transform="translate(262.5625,138.9375)"/>
<path d="M0 0 C6.27 0 12.54 0 19 0 C19 0.99 19 1.98 19 3 C14.53795824 3.9154645 10.65454615 3.97847873 6.125 3.5625 C4.97257812 3.46066406 3.82015625 3.35882813 2.6328125 3.25390625 C1.76398437 3.17011719 0.89515625 3.08632812 0 3 C0 2.01 0 1.02 0 0 Z " fill="#3E3F41" transform="translate(37,105)"/>
<path d="M0 0 C5.28 0.66 10.56 1.32 16 2 C15.67 2.66 15.34 3.32 15 4 C10.92821674 5.04318414 7.07267885 5.26816971 3 4.25 C1 3 1 3 0 0 Z " fill="#2E2E2E" transform="translate(322,190)"/>
<path d="M0 0 C0.99 0.33 1.98 0.66 3 1 C3.99 0.67 4.98 0.34 6 0 C6 0.66 6 1.32 6 2 C6.66 2 7.32 2 8 2 C8 1.34 8 0.68 8 0 C8.66 0 9.32 0 10 0 C10 1.65 10 3.3 10 5 C8.68 5 7.36 5 6 5 C5.67 5.66 5.34 6.32 5 7 C5 6.34 5 5.68 5 5 C3.35 5 1.7 5 0 5 C0 3.35 0 1.7 0 0 Z " fill="#B9B9B9" transform="translate(324,173)"/>
<path d="M0 0 C1.76015574 3.52031148 -0.10190791 7.30197375 -1 11 C-3.97 10.67 -6.94 10.34 -10 10 C-10 9.34 -10 8.68 -10 8 C-8.35 7.67 -6.7 7.34 -5 7 C-4.67 6.01 -4.34 5.02 -4 4 C-2.70644173 2.62804426 -1.37701298 1.28817344 0 0 Z " fill="#E2E2E2" transform="translate(108,34)"/>
<path d="M0 0 C0.33 0 0.66 0 1 0 C1.33872513 1.41538717 1.67074624 2.83237963 2 4.25 C2.185625 5.03890625 2.37125 5.8278125 2.5625 6.640625 C3 9 3 9 3 13 C3.66 13 4.32 13 5 13 C8 16.46153846 8 16.46153846 8 19 C6.25 18.9375 6.25 18.9375 4 18 C-0.53372098 12.20691208 -0.4668668 7.17159286 0 0 Z " fill="#D1D1D1" transform="translate(313,171)"/>
<path d="M0 0 C5.28 0.33 10.56 0.66 16 1 C16 1.66 16 2.32 16 3 C12.20732808 3.9360342 9.06325435 3.98276252 5.1875 3.5625 C4.21167969 3.46066406 3.23585937 3.35882813 2.23046875 3.25390625 C1.12638672 3.12822266 1.12638672 3.12822266 0 3 C0 2.01 0 1.02 0 0 Z " fill="#3B3C3E" transform="translate(37,171)"/>
<path d="M0 0 C2.31 0 4.62 0 7 0 C7.33 0.99 7.66 1.98 8 3 C8.66 3.66 9.32 4.32 10 5 C6.52674819 6.1577506 3.63932552 6.06866652 0 6 C0.66 4.35 1.32 2.7 2 1 C1.34 0.67 0.68 0.34 0 0 Z " fill="#7A7B7D" transform="translate(121,98)"/>
<path d="M0 0 C2.31 0.66 4.62 1.32 7 2 C6.67 3.32 6.34 4.64 6 6 C3.625 6.625 3.625 6.625 1 7 C0.34 6.34 -0.32 5.68 -1 5 C-0.625 2.375 -0.625 2.375 0 0 Z " fill="#838486" transform="translate(107,97)"/>
<path d="M0 0 C3 2 3 2 3.5625 4.5 C3.706875 5.325 3.85125 6.15 4 7 C4.66 7.66 5.32 8.32 6 9 C5.67 9.66 5.34 10.32 5 11 C0.125 10.125 0.125 10.125 -1 9 C-0.91062197 7.47480724 -0.75462854 5.95318071 -0.5625 4.4375 C-0.46066406 3.61121094 -0.35882813 2.78492187 -0.25390625 1.93359375 C-0.17011719 1.29550781 -0.08632813 0.65742187 0 0 Z " fill="#E8E8E8" transform="translate(304,77)"/>
<path d="M0 0 C1.2375 0.185625 2.475 0.37125 3.75 0.5625 C6.76279577 0.94711223 9.10010827 1.0874594 12 0 C12 1.65 12 3.3 12 5 C11.01 5.495 11.01 5.495 10 6 C10 5.34 10 4.68 10 4 C6.7 4 3.4 4 0 4 C0 2.68 0 1.36 0 0 Z " fill="#797A7C" transform="translate(123,77)"/>
<path d="M0 0 C1.2065625 0.0309375 1.2065625 0.0309375 2.4375 0.0625 C4.20212683 3.15059695 4.4375 4.29562136 4.4375 8.0625 C3.1175 8.3925 1.7975 8.7225 0.4375 9.0625 C0.004375 7.3609375 0.004375 7.3609375 -0.4375 5.625 C-0.80875 4.449375 -1.18 3.27375 -1.5625 2.0625 C-2.2225 1.7325 -2.8825 1.4025 -3.5625 1.0625 C-2.5625 0.0625 -2.5625 0.0625 0 0 Z " fill="#CBCBCB" transform="translate(243.5625,30.9375)"/>
<path d="M0 0 C0.33 0.99 0.66 1.98 1 3 C1.33 2.01 1.66 1.02 2 0 C5 0 8 0 11 0 C11.33 1.32 11.66 2.64 12 4 C8.04 4 4.08 4 0 4 C0 2.68 0 1.36 0 0 Z " fill="#5B5C5E" transform="translate(117,111)"/>
<path d="M0 0 C0.33 1.65 0.66 3.3 1 5 C-1.61941217 6.74627478 -3.03824877 7.38722388 -6 8 C-6.33 5.69 -6.66 3.38 -7 1 C-4.53721199 -0.231394 -2.7204945 -0.07159196 0 0 Z " fill="#464749" transform="translate(35,87)"/>
<path d="M0 0 C3.96 0.33 7.92 0.66 12 1 C12 1.99 12 2.98 12 4 C8.04 4 4.08 4 0 4 C0 2.68 0 1.36 0 0 Z " fill="#313234" transform="translate(130,84)"/>
<path d="M0 0 C0.33 0.66 0.66 1.32 1 2 C2.32 2 3.64 2 5 2 C7 2 9 2 11 2 C11 3.32 11 4.64 11 6 C7.37 6 3.74 6 0 6 C0 4.02 0 2.04 0 0 Z " fill="#6F6F6F" transform="translate(131,29)"/>
<path d="M0 0 C0 0.66 0 1.32 0 2 C-2.22457845 3.01144568 -4.45374291 4.00920265 -6.6875 5 C-7.31333984 5.28617188 -7.93917969 5.57234375 -8.58398438 5.8671875 C-12.19992767 7.45744528 -15.04190849 8.36326652 -19 8 C-16.10053355 5.63996917 -13.36488835 4.1980323 -9.875 2.875 C-2.36434109 0 -2.36434109 0 0 0 Z " fill="#E8E8E8" transform="translate(275,193)"/>
<path d="M0 0 C0.9075 0.185625 1.815 0.37125 2.75 0.5625 C5.83473449 1.18873617 5.83473449 1.18873617 8.125 0.4375 C10.66674001 -0.15557267 11.82736912 0.68090268 14 2 C14 2.66 14 3.32 14 4 C9.38 4 4.76 4 0 4 C0 2.68 0 1.36 0 0 Z " fill="#808080" transform="translate(121,141)"/>
<path d="M0 0 C4.62 0 9.24 0 14 0 C14 0.99 14 1.98 14 3 C12.22925083 3.02705729 10.45838289 3.04642195 8.6875 3.0625 C7.70136719 3.07410156 6.71523438 3.08570312 5.69921875 3.09765625 C3 3 3 3 0 2 C0 1.34 0 0.68 0 0 Z " fill="#D2D2D2" transform="translate(325,85)"/>
<path d="M0 0 C4.62 0 9.24 0 14 0 C14 0.99 14 1.98 14 3 C9.38 3 4.76 3 0 3 C0 2.01 0 1.02 0 0 Z " fill="#3B3C3E" transform="translate(37,120)"/>
<path d="M0 0 C2.31 0 4.62 0 7 0 C7 1.98 7 3.96 7 6 C4.69 5.67 2.38 5.34 0 5 C0 3.35 0 1.7 0 0 Z " fill="#8B8B8B" transform="translate(308,98)"/>
<path d="M0 0 C1.65 0 3.3 0 5 0 C3.125 4.75 3.125 4.75 2 7 C1.21625 6.79375 0.4325 6.5875 -0.375 6.375 C-1.674375 6.189375 -1.674375 6.189375 -3 6 C-3.66 6.66 -4.32 7.32 -5 8 C-5.33 7.01 -5.66 6.02 -6 5 C-4.02 4.67 -2.04 4.34 0 4 C0 2.68 0 1.36 0 0 Z " fill="#3A3B3C" transform="translate(30,76)"/>
<path d="M0 0 C3.96 0 7.92 0 12 0 C11.67 0.99 11.34 1.98 11 3 C7.37 3 3.74 3 0 3 C0 2.01 0 1.02 0 0 Z " fill="#B5B5B5" transform="translate(200,142)"/>
<path d="M0 0 C5.61 0.33 11.22 0.66 17 1 C16.67 1.66 16.34 2.32 16 3 C10.72 3 5.44 3 0 3 C0 2.01 0 1.02 0 0 Z " fill="#606060" transform="translate(40,77)"/>
<path d="M0 0 C3.63 0.33 7.26 0.66 11 1 C11 1.99 11 2.98 11 4 C7.7 4 4.4 4 1 4 C0.67 2.68 0.34 1.36 0 0 Z " fill="#7C7D7F" transform="translate(36,34)"/>
<path d="M0 0 C0.66 0.33 1.32 0.66 2 1 C2.99 0.67 3.98 0.34 5 0 C7.3406065 0.27769908 9.67624308 0.60539977 12 1 C11.67 1.99 11.34 2.98 11 4 C9.37581255 4.08090971 7.75048255 4.13914995 6.125 4.1875 C5.22007813 4.22230469 4.31515625 4.25710937 3.3828125 4.29296875 C2.20332031 4.14794922 2.20332031 4.14794922 1 4 C0.34 3.01 -0.32 2.02 -1 1 C-0.67 0.67 -0.34 0.34 0 0 Z " fill="#878787" transform="translate(107,141)"/>
<path d="M0 0 C0.33 0.99 0.66 1.98 1 3 C-0.75 5.6875 -0.75 5.6875 -3 8 C-3.99 8 -4.98 8 -6 8 C-6.33 6.35 -6.66 4.7 -7 3 C-5.5459375 2.5359375 -5.5459375 2.5359375 -4.0625 2.0625 C-1.15934208 1.30476658 -1.15934208 1.30476658 0 0 Z " fill="#F7F7F7" transform="translate(204,198)"/>
<path d="M0 0 C-0.55558594 0.1340625 -1.11117187 0.268125 -1.68359375 0.40625 C-4.16474165 1.0422272 -6.61033426 1.76028183 -9.0625 2.5 C-10.34833984 2.88671875 -10.34833984 2.88671875 -11.66015625 3.28125 C-13.44760539 3.83031618 -15.22607687 4.40869229 -17 5 C-16 2 -16 2 -14.29296875 1.0859375 C-13.25076172 0.73402344 -13.25076172 0.73402344 -12.1875 0.375 C-11.15689453 0.01535156 -11.15689453 0.01535156 -10.10546875 -0.3515625 C-3.78509883 -2.29809572 -3.78509883 -2.29809572 0 0 Z " fill="#AEAEAE" transform="translate(227,187)"/>
<path d="M0 0 C3.63 0 7.26 0 11 0 C11 0.99 11 1.98 11 3 C7.7 3 4.4 3 1 3 C0.67 2.01 0.34 1.02 0 0 Z " fill="#CBCBCB" transform="translate(257,112)"/>
<path d="M0 0 C1.17348213 3.52044638 0.83679382 5.42460821 0 9 C-0.66 9.66 -1.32 10.32 -2 11 C-4.875 6.25 -4.875 6.25 -6 4 C-5.38125 3.71125 -4.7625 3.4225 -4.125 3.125 C-1.86674235 2.06279958 -1.86674235 2.06279958 0 0 Z " fill="#E4E4E4" transform="translate(190,65)"/>
<path d="M0 0 C1.65 0.33 3.3 0.66 5 1 C4.67 2.65 4.34 4.3 4 6 C2.35 5.67 0.7 5.34 -1 5 C-0.67 3.35 -0.34 1.7 0 0 Z " fill="#555658" transform="translate(70,104)"/>
<path d="M0 0 C2 3 2 3 2 5 C0.5 6.625 0.5 6.625 -1 8 C-1.99 7.67 -2.98 7.34 -4 7 C-4.33 5.35 -4.66 3.7 -5 2 C-3.35 1.34 -1.7 0.68 0 0 Z " fill="#202123" transform="translate(142,72)"/>
<path d="M0 0 C4.29 0.33 8.58 0.66 13 1 C13 1.66 13 2.32 13 3 C8.71 3 4.42 3 0 3 C0 2.01 0 1.02 0 0 Z " fill="#DBDBDB" transform="translate(310,219)"/>
<path d="M0 0 C1.32 0.99 2.64 1.98 4 3 C4 2.01 4 1.02 4 0 C5.65 0 7.3 0 9 0 C9.33 1.32 9.66 2.64 10 4 C8.824375 3.9690625 8.824375 3.9690625 7.625 3.9375 C5.01885039 3.81315937 5.01885039 3.81315937 3 5 C2.01 4.67 1.02 4.34 0 4 C0 2.68 0 1.36 0 0 Z " fill="#B4B4B4" transform="translate(316,111)"/>
<path d="M0 0 C3.63 0 7.26 0 11 0 C11 0.66 11 1.32 11 2 C7.32589215 3.17571451 3.83070817 3.07366746 0 3 C0 2.01 0 1.02 0 0 Z " fill="#D1D1D1" transform="translate(176,42)"/>
<path d="M0 0 C1.48117801 0.28127421 2.95993249 0.57533732 4.4375 0.875 C5.67306641 1.11863281 5.67306641 1.11863281 6.93359375 1.3671875 C7.61550781 1.57601562 8.29742187 1.78484375 9 2 C9.33 2.66 9.66 3.32 10 4 C6.37 4 2.74 4 -1 4 C-0.67 2.68 -0.34 1.36 0 0 Z " fill="#747577" transform="translate(50,34)"/>
<path d="M0 0 C0.33 1.32 0.66 2.64 1 4 C0.34 4 -0.32 4 -1 4 C-1.66 5.65 -2.32 7.3 -3 9 C-3.66 8.01 -4.32 7.02 -5 6 C-8.56769552 5.26393501 -8.56769552 5.26393501 -12 5 C-12 4.67 -12 4.34 -12 4 C-11.38511719 3.96261719 -10.77023438 3.92523438 -10.13671875 3.88671875 C-9.32847656 3.82097656 -8.52023438 3.75523437 -7.6875 3.6875 C-6.88699219 3.62949219 -6.08648437 3.57148438 -5.26171875 3.51171875 C-2.63727666 2.91793306 -1.69179328 2.04219706 0 0 Z " fill="#C9C9C9" transform="translate(257,196)"/>
<path d="M0 0 C1.65 0 3.3 0 5 0 C4.67 1.65 4.34 3.3 4 5 C2.35 5 0.7 5 -1 5 C-0.67 3.35 -0.34 1.7 0 0 Z " fill="#505153" transform="translate(28,134)"/>
<path d="M0 0 C2.0625 0.4375 2.0625 0.4375 4 1 C3.67 2.98 3.34 4.96 3 7 C1.68 7.33 0.36 7.66 -1 8 C-1.04241723 5.66705225 -1.04092937 3.33297433 -1 1 C-0.67 0.67 -0.34 0.34 0 0 Z " fill="#646567" transform="translate(137,96)"/>
<path d="M0 0 C4.21912747 0.4794463 6.79663178 1.16625119 10 4 C9.34 4.66 8.68 5.32 8 6 C5.36 5.01 2.72 4.02 0 3 C0 2.01 0 1.02 0 0 Z " fill="#2D2D2D" transform="translate(332,156)"/>
<path d="M0 0 C5.875 4.625 5.875 4.625 7 8 C5.125 8.625 5.125 8.625 3 9 C2.34 8.34 1.68 7.68 1 7 C1.33 6.34 1.66 5.68 2 5 C1.01 4.67 0.02 4.34 -1 4 C-0.67 2.68 -0.34 1.36 0 0 Z " fill="#E0E2E1" transform="translate(98,118)"/>
<path d="M0 0 C0.99 0 1.98 0 3 0 C3.33 0.66 3.66 1.32 4 2 C5.65 1.67 7.3 1.34 9 1 C9 1.99 9 2.98 9 4 C1.25 4.125 1.25 4.125 -1 3 C-0.67 2.01 -0.34 1.02 0 0 Z " fill="#AFAFAF" transform="translate(238,111)"/>
<path d="M0 0 C0.33 0.66 0.66 1.32 1 2 C1.66 2 2.32 2 3 2 C3 3.65 3 5.3 3 7 C1.35 7 -0.3 7 -2 7 C-2 5.35 -2 3.7 -2 2 C-1.34 2 -0.68 2 0 2 C0 1.34 0 0.68 0 0 Z " fill="#9C9D9E" transform="translate(30,59)"/>
<path d="M0 0 C1.65 0.33 3.3 0.66 5 1 C4.67 2.32 4.34 3.64 4 5 C2.35 5 0.7 5 -1 5 C-0.67 3.35 -0.34 1.7 0 0 Z " fill="#7B7168" transform="translate(321,32)"/>
<path d="M0 0 C0.99 0.33 1.98 0.66 3 1 C3 2.65 3 4.3 3 6 C1.35 6 -0.3 6 -2 6 C-2 4.35 -2 2.7 -2 1 C-1.34 0.67 -0.68 0.34 0 0 Z " fill="#CACBCD" transform="translate(111,79)"/>
<path d="M0 0 C0.66 0.33 1.32 0.66 2 1 C1.67 1.99 1.34 2.98 1 4 C1.66 4 2.32 4 3 4 C3 4.99 3 5.98 3 7 C1.02 7 -0.96 7 -3 7 C-3 3 -3 3 -1.5 1.25 C-1.005 0.8375 -0.51 0.425 0 0 Z " fill="#2B2C2E" transform="translate(126,81)"/>
<path d="M0 0 C2.64 0 5.28 0 8 0 C7.67 1.32 7.34 2.64 7 4 C4.69 4 2.38 4 0 4 C0 2.68 0 1.36 0 0 Z " fill="#818181" transform="translate(320,77)"/>
<path d="M0 0 C2.97 0 5.94 0 9 0 C9.33 0.66 9.66 1.32 10 2 C9.34 2 8.68 2 8 2 C7.67 2.66 7.34 3.32 7 4 C4.69 4 2.38 4 0 4 C0 2.68 0 1.36 0 0 Z " fill="#5F5F5F" transform="translate(119,31)"/>
<path d="M0 0 C2.31 0 4.62 0 7 0 C7.33 0.99 7.66 1.98 8 3 C5.03 3 2.06 3 -1 3 C-0.67 2.01 -0.34 1.02 0 0 Z " fill="#363739" transform="translate(43,135)"/>
<path d="M0 0 C2.97 0 5.94 0 9 0 C9 0.99 9 1.98 9 3 C6.36 3 3.72 3 1 3 C0.67 2.01 0.34 1.02 0 0 Z " fill="#D6D6D6" transform="translate(230,85)"/>
<path d="M0 0 C0 0.66 0 1.32 0 2 C-3.96 2 -7.92 2 -12 2 C-12 1.34 -12 0.68 -12 0 C-7.74433453 -1.16063604 -4.3164922 -0.76173392 0 0 Z " fill="#CCCCCC" transform="translate(175,42)"/>
<path d="M0 0 C7.42857143 -0.14285714 7.42857143 -0.14285714 11 1 C11 1.66 11 2.32 11 3 C7.37 3 3.74 3 0 3 C0 2.01 0 1.02 0 0 Z " fill="#A5A5A5" transform="translate(349,35)"/>
<path d="M0 0 C0.66 0 1.32 0 2 0 C2 0.66 2 1.32 2 2 C4.97 2 7.94 2 11 2 C9.68 3.32 8.36 4.64 7 6 C2.32307692 4.52307692 2.32307692 4.52307692 0.6875 1.875 C0.460625 1.25625 0.23375 0.6375 0 0 Z " fill="#E8E8E8" transform="translate(144,194)"/>
<path d="M0 0 C0 0.99 0 1.98 0 3 C-2.97 3.66 -5.94 4.32 -9 5 C-8.67 4.01 -8.34 3.02 -8 2 C-5.10441559 0.5522078 -3.25811062 0 0 0 Z " fill="#808080" transform="translate(330,156)"/>
<path d="M0 0 C1.32 0.33 2.64 0.66 4 1 C4 1.99 4 2.98 4 4 C4.99 4.33 5.98 4.66 7 5 C4 7 4 7 1.8125 6.625 C1.214375 6.41875 0.61625 6.2125 0 6 C0.66 4.35 1.32 2.7 2 1 C1.34 0.67 0.68 0.34 0 0 Z " fill="#8C8C8C" transform="translate(209,98)"/>
<path d="M0 0 C1.32 0.66 2.64 1.32 4 2 C4 2.99 4 3.98 4 5 C1.4345406 7.5654594 -0.47686668 7.54046087 -4 8 C-2.68 7.34 -1.36 6.68 0 6 C0 4.02 0 2.04 0 0 Z " fill="#131416" transform="translate(140,97)"/>
<path d="M0 0 C1.32 0.66 2.64 1.32 4 2 C3.34 3.32 2.68 4.64 2 6 C0.68 5.34 -0.64 4.68 -2 4 C-1.34 2.68 -0.68 1.36 0 0 Z " fill="#9C9C9C" transform="translate(308,79)"/>
<path d="M0 0 C0.66 0 1.32 0 2 0 C2 0.66 2 1.32 2 2 C4.31 2 6.62 2 9 2 C8.67 2.66 8.34 3.32 8 4 C5.35139573 4.59355614 2.70802678 4.74209269 0 5 C-0.5625 3.0625 -0.5625 3.0625 -1 1 C-0.67 0.67 -0.34 0.34 0 0 Z " fill="#D3D3D3" transform="translate(253,34)"/>
<path d="M0 0 C0.66 0 1.32 0 2 0 C2 1.98 2 3.96 2 6 C0.68 6.33 -0.64 6.66 -2 7 C-2.33 5.35 -2.66 3.7 -3 2 C-2.01 2 -1.02 2 0 2 C0 1.34 0 0.68 0 0 Z " fill="#808080" transform="translate(108,29)"/>
<path d="M0 0 C1.65 0 3.3 0 5 0 C4.67 1.65 4.34 3.3 4 5 C2.68 5 1.36 5 0 5 C0 3.35 0 1.7 0 0 Z " fill="#353535" transform="translate(306,30)"/>
<path d="M0 0 C2.31 0 4.62 0 7 0 C7 0.99 7 1.98 7 3 C4.36 3 1.72 3 -1 3 C-0.67 2.01 -0.34 1.02 0 0 Z " fill="#B1B1B1" transform="translate(214,142)"/>
<path d="M0 0 C0.66 0.33 1.32 0.66 2 1 C1.67 1.66 1.34 2.32 1 3 C1.66 3 2.32 3 3 3 C3 2.34 3 1.68 3 1 C4.32 1 5.64 1 7 1 C7 1.99 7 2.98 7 4 C4.69 4.33 2.38 4.66 0 5 C-0.5625 3.0625 -0.5625 3.0625 -1 1 C-0.67 0.67 -0.34 0.34 0 0 Z " fill="#8A8A8A" transform="translate(314,141)"/>
<path d="M0 0 C1.1446875 0.2475 1.1446875 0.2475 2.3125 0.5 C5.03596236 1.09145396 5.03596236 1.09145396 8 1 C8 1.99 8 2.98 8 4 C4.71023192 5.09658936 3.28696233 4.79953138 0 4 C0 2.68 0 1.36 0 0 Z " fill="#868686" transform="translate(304,141)"/>
<path d="M0 0 C2.31 0.33 4.62 0.66 7 1 C7 1.99 7 2.98 7 4 C4.69 4 2.38 4 0 4 C0 2.68 0 1.36 0 0 Z " fill="#38393B" transform="translate(150,111)"/>
<path d="M0 0 C0.66 0 1.32 0 2 0 C2 0.66 2 1.32 2 2 C2.66 2 3.32 2 4 2 C4 1.34 4 0.68 4 0 C5.32 0.33 6.64 0.66 8 1 C8 1.66 8 2.32 8 3 C7.01 3 6.02 3 5 3 C4.67 3.66 4.34 4.32 4 5 C4 4.34 4 3.68 4 3 C2.35 3.33 0.7 3.66 -1 4 C-0.67 2.68 -0.34 1.36 0 0 Z " fill="#252628" transform="translate(126,75)"/>
<path d="M0 0 C0.103125 0.639375 0.20625 1.27875 0.3125 1.9375 C0.539375 2.618125 0.76625 3.29875 1 4 C1.99 4.33 2.98 4.66 4 5 C3.34 5 2.68 5 2 5 C1.67 5.99 1.34 6.98 1 8 C0.01 8 -0.98 8 -2 8 C-1.47731534 5.23723823 -0.89130413 2.6739124 0 0 Z " fill="#A2A2A2" transform="translate(305,31)"/>
<path d="M0 0 C1.65 0 3.3 0 5 0 C4.67 1.32 4.34 2.64 4 4 C2.68 4 1.36 4 0 4 C-0.99 4.495 -0.99 4.495 -2 5 C-1.34 3.35 -0.68 1.7 0 0 Z " fill="#4C4D4F" transform="translate(108,76)"/>
<path d="M0 0 C1.98 0.99 1.98 0.99 4 2 C3.67 3.98 3.34 5.96 3 8 C2.01 8 1.02 8 0 8 C0 5.36 0 2.72 0 0 Z " fill="#D0CCC6" transform="translate(325,32)"/>
<path d="M0 0 C0.99 0.33 1.98 0.66 3 1 C3.66 0.67 4.32 0.34 5 0 C5.33 1.32 5.66 2.64 6 4 C2.25 5.125 2.25 5.125 0 4 C0 2.68 0 1.36 0 0 Z " fill="#808080" transform="translate(324,173)"/>
<path d="M0 0 C2.31 0.33 4.62 0.66 7 1 C7 1.66 7 2.32 7 3 C4.69 3.33 2.38 3.66 0 4 C0 2.68 0 1.36 0 0 Z " fill="#A1A1A1" transform="translate(143,155)"/>
<path d="M0 0 C1.485 0.99 1.485 0.99 3 2 C3.1875 5.125 3.1875 5.125 3 8 C1.68 8 0.36 8 -1 8 C-1 7.01 -1 6.02 -1 5 C-0.34 5 0.32 5 1 5 C0.67 3.35 0.34 1.7 0 0 Z " fill="#EAEAEA" transform="translate(212,80)"/>
<path d="M0 0 C2.97 0.33 5.94 0.66 9 1 C9 1.66 9 2.32 9 3 C6.36 3.33 3.72 3.66 1 4 C0.67 2.68 0.34 1.36 0 0 Z " fill="#CDCDCD" transform="translate(142,41)"/>
<path d="M0 0 C0.66 0.33 1.32 0.66 2 1 C2 2.98 2 4.96 2 7 C1.34 7 0.68 7 0 7 C-0.33 7.66 -0.66 8.32 -1 9 C-1.80967438 6.08517222 -2.21845993 4.53886783 -1.0625 1.6875 C-0.711875 1.130625 -0.36125 0.57375 0 0 Z " fill="#DDD9D7" transform="translate(319,32)"/>
<path d="M0 0 C1.98 0 3.96 0 6 0 C5.67 1.32 5.34 2.64 5 4 C3.35 3.67 1.7 3.34 0 3 C0 2.01 0 1.02 0 0 Z " fill="#7B7C7E" transform="translate(66,35)"/>
<path d="M0 0 C1.32 0 2.64 0 4 0 C4 0.99 4 1.98 4 3 C4.66 3 5.32 3 6 3 C6.33 2.01 6.66 1.02 7 0 C7.33 1.32 7.66 2.64 8 4 C5.69 4.33 3.38 4.66 1 5 C0.67 3.35 0.34 1.7 0 0 Z " fill="#DDDDDD" transform="translate(162,32)"/>
<path d="M0 0 C0.99 0.33 1.98 0.66 3 1 C3 2.65 3 4.3 3 6 C1.68 5.67 0.36 5.34 -1 5 C-0.67 3.35 -0.34 1.7 0 0 Z " fill="#EFEFEF" transform="translate(240,34)"/>
<path d="M0 0 C1.65 0 3.3 0 5 0 C5 1.65 5 3.3 5 5 C3.35 5 1.7 5 0 5 C0 3.35 0 1.7 0 0 Z " fill="#5A5A5A" transform="translate(151,30)"/>
<path d="M0 0 C1.98 0 3.96 0 6 0 C5.67 1.65 5.34 3.3 5 5 C3.68 5 2.36 5 1 5 C0.67 3.35 0.34 1.7 0 0 Z " fill="#585858" transform="translate(98,30)"/>
<path d="M0 0 C0.33 0 0.66 0 1 0 C1.22134176 2.12368444 1.42670007 4.24904024 1.625 6.375 C1.74101562 7.55835938 1.85703125 8.74171875 1.9765625 9.9609375 C1.98429687 10.96382812 1.99203125 11.96671875 2 13 C1.34 13.66 0.68 14.32 0 15 C-1.5111995 9.96266834 -0.64599773 5.11828973 0 0 Z " fill="#646464" transform="translate(347,171)"/>
<path d="M0 0 C0 0.99 0 1.98 0 3 C-0.66 3 -1.32 3 -2 3 C-2 3.66 -2 4.32 -2 5 C-3.65 5 -5.3 5 -7 5 C-2.25 0 -2.25 0 0 0 Z " fill="#2B2D2E" transform="translate(116,112)"/>
<path d="M0 0 C2.31 0 4.62 0 7 0 C7 0.99 7 1.98 7 3 C4.69 2.67 2.38 2.34 0 2 C0 1.34 0 0.68 0 0 Z " fill="#CBCBCB" transform="translate(249,112)"/>
<path d="M0 0 C1.98 0.66 3.96 1.32 6 2 C5.03114628 3.68496298 4.03013277 5.35178756 3 7 C2.67 7 2.34 7 2 7 C2 5.35 2 3.7 2 2 C1.01 1.67 0.02 1.34 -1 1 C-0.67 0.67 -0.34 0.34 0 0 Z " fill="#EFEFEF" transform="translate(313,96)"/>
<path d="M0 0 C1.98 0 3.96 0 6 0 C6.33 0.99 6.66 1.98 7 3 C4 4 4 4 1.8125 3.0625 C1.214375 2.711875 0.61625 2.36125 0 2 C0 1.34 0 0.68 0 0 Z " fill="#D3D3D3" transform="translate(222,85)"/>
<path d="M0 0 C0.99 0.33 1.98 0.66 3 1 C3 1.99 3 2.98 3 4 C3.99 4.33 4.98 4.66 6 5 C5.21625 4.814375 4.4325 4.62875 3.625 4.4375 C1.02910225 3.74037734 1.02910225 3.74037734 -1 5 C-1.33 3.68 -1.66 2.36 -2 1 C-1.34 0.67 -0.68 0.34 0 0 Z " fill="#E2E2E2" transform="translate(322,83)"/>
<path d="M0 0 C1.32 0 2.64 0 4 0 C4 1.32 4 2.64 4 4 C2.35 3.67 0.7 3.34 -1 3 C-0.67 2.01 -0.34 1.02 0 0 Z " fill="#5D5E60" transform="translate(145,111)"/>
<path d="M0 0 C0.99 0.33 1.98 0.66 3 1 C2.67 2.65 2.34 4.3 2 6 C1.34 6 0.68 6 0 6 C-0.38218767 4.34385343 -0.71395102 2.67542976 -1 1 C-0.67 0.67 -0.34 0.34 0 0 Z " fill="#7E7E7E" transform="translate(304,98)"/>
<path d="M0 0 C1.32 0.33 2.64 0.66 4 1 C4 1.66 4 2.32 4 3 C4.66 3.66 5.32 4.32 6 5 C4.02 5 2.04 5 0 5 C0 3.35 0 1.7 0 0 Z " fill="#969799" transform="translate(125,98)"/>
<path d="M0 0 C0.66 0 1.32 0 2 0 C2 0.99 2 1.98 2 3 C2.66 3 3.32 3 4 3 C4 3.66 4 4.32 4 5 C3.34 5 2.68 5 2 5 C1.67 5.66 1.34 6.32 1 7 C1 6.34 1 5.68 1 5 C0.34 5 -0.32 5 -1 5 C-0.67 3.35 -0.34 1.7 0 0 Z " fill="#7F7F7F" transform="translate(209,80)"/>
<path d="M0 0 C2 2 2 2 2 5 C0.35 5 -1.3 5 -3 5 C-3.33 3.68 -3.66 2.36 -4 1 C-2.125 0.375 -2.125 0.375 0 0 Z " fill="#9A9A9A" transform="translate(225,76)"/>
<path d="M0 0 C2.97 0.495 2.97 0.495 6 1 C6.33 1.99 6.66 2.98 7 4 C4.69 4 2.38 4 0 4 C0 2.68 0 1.36 0 0 Z " fill="#828385" transform="translate(143,77)"/>
<path d="M0 0 C0 0.99 0 1.98 0 3 C0.66 3.33 1.32 3.66 2 4 C-0.31 4 -2.62 4 -5 4 C-5 3.01 -5 2.02 -5 1 C-3 0 -3 0 0 0 Z " fill="#131416" transform="translate(149,74)"/>
<path d="M0 0 C1.5625 1.25 1.5625 1.25 3 3 C2.6875 5.1875 2.6875 5.1875 2 7 C0.68 7.33 -0.64 7.66 -2 8 C-2 7.34 -2 6.68 -2 6 C-1.34 6 -0.68 6 0 6 C0 4.02 0 2.04 0 0 Z " fill="#131314" transform="translate(33,61)"/>
<path d="M0 0 C2.64 0 5.28 0 8 0 C8 0.66 8 1.32 8 2 C5.69 2.33 3.38 2.66 1 3 C0.67 2.01 0.34 1.02 0 0 Z " fill="#EDEDED" transform="translate(134,218)"/>
<path d="M0 0 C1.98 1.32 3.96 2.64 6 4 C2.25838897 4 -1.28953557 3.48661829 -5 3 C-4.360625 2.690625 -3.72125 2.38125 -3.0625 2.0625 C-1.06389179 1.1654837 -1.06389179 1.1654837 0 0 Z " fill="#A5A5A5" transform="translate(137,179)"/>
<path d="M0 0 C1.98 0 3.96 0 6 0 C6 0.99 6 1.98 6 3 C4.02 3 2.04 3 0 3 C0 2.01 0 1.02 0 0 Z " fill="#D0D0D0" transform="translate(109,42)"/>
</svg>
