<?xml version="1.0" encoding="UTF-8"?>
<svg version="1.1" xmlns="http://www.w3.org/2000/svg" width="1024" height="1024">
<path d="M0 0 C1.24988708 -0.00551376 1.24988708 -0.00551376 2.52502441 -0.01113892 C51.18778484 -0.12312435 95.45113782 18.95727551 132.125 50.3125 C132.85847656 50.93511719 133.59195312 51.55773437 134.34765625 52.19921875 C135.94650194 53.56284659 137.53701178 54.93624354 139.125 56.3125 C137.6002026 59.93111841 135.45204608 62.20376874 132.66015625 64.9375 C131.77779297 65.80890625 130.89542969 66.6803125 129.98632812 67.578125 C129.06271484 68.48046875 128.13910156 69.3828125 127.1875 70.3125 C125.36362512 72.10186569 123.54192109 73.89344744 121.72265625 75.6875 C120.91320557 76.47898437 120.10375488 77.27046875 119.26977539 78.0859375 C117.10066606 80.23516235 117.10066606 80.23516235 115.46264648 82.6015625 C115.02122314 83.16617188 114.5797998 83.73078125 114.125 84.3125 C113.465 84.3125 112.805 84.3125 112.125 84.3125 C111.8571167 84.90708008 111.5892334 85.50166016 111.31323242 86.11425781 C110.11289327 88.33489757 108.91797002 89.7368607 107.11328125 91.484375 C106.52417969 92.06179443 105.93507813 92.63921387 105.328125 93.23413086 C104.39226562 94.13917358 104.39226562 94.13917358 103.4375 95.0625 C99.12170386 99.30502746 94.92647431 103.55014708 90.9987793 108.15771484 C89.25051426 110.16816269 87.46041554 112.1203262 85.6328125 114.05859375 C84.99666016 114.73607666 84.36050781 115.41355957 83.70507812 116.11157227 C82.41658518 117.47971106 81.12626186 118.84612869 79.83398438 120.21069336 C79.24166016 120.83983643 78.64933594 121.46897949 78.0390625 122.1171875 C77.2339624 122.96772705 77.2339624 122.96772705 76.41259766 123.83544922 C75.02616113 125.30131979 75.02616113 125.30131979 74.125 127.3125 C70.25671688 125.79281735 68.68657817 123.51447271 66.125 120.3125 C63.57679008 117.83232481 60.8728382 115.56771589 58.125 113.3125 C57.25875 112.59707031 56.3925 111.88164062 55.5 111.14453125 C35.05394445 95.00437055 10.32742989 88.01894696 -15.55273438 90.98046875 C-38.45246887 94.25461077 -59.93766637 105.43712465 -74.875 123.3125 C-90.98630664 145.24401616 -99.7141607 172.03524188 -95.97607422 199.3112793 C-92.08578493 223.65379934 -79.19891934 246.92227598 -59.875 262.3125 C-56.31872614 264.86090183 -52.66707991 267.13284188 -48.875 269.3125 C-47.54082031 270.09947266 -47.54082031 270.09947266 -46.1796875 270.90234375 C-24.05135905 283.01436754 2.09448142 283.87022137 26.00390625 277.28125 C50.30002297 269.78213577 69.84285198 253.5127611 86.25 234.46875 C88.29859094 232.11287042 90.39703002 229.8074254 92.5 227.5 C95.57246773 224.10166448 98.50942622 220.63659477 101.375 217.0625 C105.47581332 211.98666813 109.86132724 207.24697485 114.33154297 202.50048828 C117.5343284 199.08126061 120.58048038 195.60617937 123.5 191.9375 C127.91294396 186.41724907 132.74110947 181.34675238 137.60571289 176.22851562 C141.99008125 171.59163859 146.03713262 166.82459048 150.01171875 161.83203125 C153.04612565 158.21430029 156.39675775 154.95972227 159.76953125 151.66015625 C163.62581439 147.81666344 167.18456278 143.72772505 170.59375 139.484375 C171.73512343 138.0642941 172.9252626 136.68362845 174.125 135.3125 C174.785 135.3125 175.445 135.3125 176.125 135.3125 C176.33125 134.755625 176.5375 134.19875 176.75 133.625 C178.09346753 131.36553189 179.17657702 130.3126344 181.1875 128.6875 C184.13324713 126.64130603 184.13324713 126.64130603 185.125 124.3125 C185.785 124.3125 186.445 124.3125 187.125 124.3125 C187.34929687 123.75433594 187.57359375 123.19617188 187.8046875 122.62109375 C190.87222749 117.25743655 196.48325541 113.33775316 201.125 109.3125 C201.72683105 108.78914063 202.32866211 108.26578125 202.94873047 107.7265625 C217.85043954 94.89442657 234.21381667 84.43485053 252.125 76.3125 C253.86716797 75.51585937 253.86716797 75.51585937 255.64453125 74.703125 C299.8370763 55.7982656 349.77515997 57.14659955 396.83323359 57.21110606 C402.2370114 57.21742946 407.64078999 57.21795041 413.04457092 57.21913147 C423.24006718 57.22221863 433.4355525 57.23039614 443.63104397 57.24048096 C455.25408748 57.25172411 466.87713156 57.25717306 478.50017917 57.26217639 C502.37512547 57.27258144 526.25006212 57.29012932 550.125 57.3125 C549.39495085 60.3924918 548.41552453 63.03178989 547.04296875 65.890625 C546.61153564 66.79272705 546.18010254 67.6948291 545.7355957 68.62426758 C545.26597412 69.59388428 544.79635254 70.56350098 544.3125 71.5625 C543.58196411 73.07396606 543.58196411 73.07396606 542.83666992 74.6159668 C541.80058408 76.75401868 540.76218984 78.89095323 539.72167969 81.02685547 C538.13861024 84.28449287 536.57317305 87.55023073 535.0078125 90.81640625 C533.98547754 92.91980707 532.96207172 95.02268781 531.9375 97.125 C531.47561279 98.0953418 531.01372559 99.06568359 530.5378418 100.06542969 C522.52665867 116.33204788 510.20092004 127.67790236 493.25 134.0625 C479.61581424 138.66625104 465.36190648 139.45446127 451.06176758 139.47021484 C450.02727982 139.47529556 448.99279205 139.48037628 447.92695618 139.48561096 C445.70091887 139.49622971 443.47487145 139.50488243 441.24881935 139.51173019 C437.6998176 139.52367208 434.15092942 139.5431652 430.60197449 139.56484985 C420.51764842 139.62593006 410.43333499 139.68020625 400.34887695 139.71386719 C394.15570366 139.735082 387.96274075 139.77059358 381.76968956 139.81462479 C379.43749186 139.82857658 377.10525699 139.83745883 374.77301979 139.84067917 C354.50066276 139.8716154 334.04211352 140.97887485 314.3125 146 C313.29172363 146.25346191 312.27094727 146.50692383 311.21923828 146.76806641 C277.40051939 155.54251067 244.26905352 176.14257767 222.125 203.3125 C220.45833333 204.97916667 218.79166667 206.64583333 217.125 208.3125 C211.68814603 214.15287047 206.53347257 220.18458897 201.515625 226.38671875 C198.88473898 229.60654494 196.19727498 232.77337129 193.5 235.9375 C189.23089271 240.959207 185.13417531 246.08204229 181.125 251.3125 C175.23018904 258.93836541 169.23245513 266.44518993 162.9675293 273.77075195 C160.46098645 276.70860528 158.02798502 279.6784676 155.6875 282.75 C151.24368663 288.55701216 146.42196809 294.0521464 141.62451172 299.56738281 C140.56551085 300.79983775 139.52161483 302.04534919 138.48876953 303.29980469 C137.69188721 304.26128418 137.69188721 304.26128418 136.87890625 305.2421875 C136.39881104 305.82983887 135.91871582 306.41749023 135.42407227 307.02294922 C134.125 308.3125 134.125 308.3125 132.125 308.3125 C131.87621094 308.88613281 131.62742187 309.45976563 131.37109375 310.05078125 C127.32257455 317.39903397 119.37676212 322.91410423 112.9296875 328.06640625 C111.10289738 329.52936491 109.29433051 331.01546955 107.5078125 332.52734375 C70.77906834 363.53425091 23.66547587 377.38117952 -24.04296875 374.09423828 C-64.82914623 370.52607485 -103.39927847 355.55858597 -133.140625 326.9296875 C-135.28936527 324.8730361 -137.45141872 322.94408202 -139.75 321.0625 C-171.52600001 294.10339975 -189.26159736 247.73831795 -192.6809082 207.33398438 C-195.61684215 161.62943278 -184.56414062 116.29392849 -156.875 79.3125 C-156.11445313 78.25546875 -155.35390625 77.1984375 -154.5703125 76.109375 C-142.8589163 60.21233421 -128.07883808 45.6151474 -111.875 34.3125 C-111.32215332 33.92594238 -110.76930664 33.53938477 -110.19970703 33.14111328 C-89.19930877 18.67121606 -65.80824297 8.65977904 -40.875 3.3125 C-40.13572266 3.14878906 -39.39644531 2.98507812 -38.63476562 2.81640625 C-25.85508793 0.12477701 -13.00325822 0.02761263 0 0 Z " fill="#00A6AD" transform="translate(362.875,308.6875)"/>
<path d="M0 0 C1.24988708 -0.00551376 1.24988708 -0.00551376 2.52502441 -0.01113892 C51.18778484 -0.12312435 95.45113782 18.95727551 132.125 50.3125 C132.85847656 50.93511719 133.59195312 51.55773437 134.34765625 52.19921875 C135.94650194 53.56284659 137.53701178 54.93624354 139.125 56.3125 C137.6002026 59.93111841 135.45204608 62.20376874 132.66015625 64.9375 C131.77779297 65.80890625 130.89542969 66.6803125 129.98632812 67.578125 C129.06271484 68.48046875 128.13910156 69.3828125 127.1875 70.3125 C125.36362512 72.10186569 123.54192109 73.89344744 121.72265625 75.6875 C120.91320557 76.47898437 120.10375488 77.27046875 119.26977539 78.0859375 C117.10066606 80.23516235 117.10066606 80.23516235 115.46264648 82.6015625 C115.02122314 83.16617188 114.5797998 83.73078125 114.125 84.3125 C113.465 84.3125 112.805 84.3125 112.125 84.3125 C111.8571167 84.90708008 111.5892334 85.50166016 111.31323242 86.11425781 C110.11289327 88.33489757 108.91797002 89.7368607 107.11328125 91.484375 C106.52417969 92.06179443 105.93507813 92.63921387 105.328125 93.23413086 C104.39226562 94.13917358 104.39226562 94.13917358 103.4375 95.0625 C99.12170386 99.30502746 94.92647431 103.55014708 90.9987793 108.15771484 C89.25051426 110.16816269 87.46041554 112.1203262 85.6328125 114.05859375 C84.99666016 114.73607666 84.36050781 115.41355957 83.70507812 116.11157227 C82.41658518 117.47971106 81.12626186 118.84612869 79.83398438 120.21069336 C79.24166016 120.83983643 78.64933594 121.46897949 78.0390625 122.1171875 C77.2339624 122.96772705 77.2339624 122.96772705 76.41259766 123.83544922 C75.02616113 125.30131979 75.02616113 125.30131979 74.125 127.3125 C70.25671688 125.79281735 68.68657817 123.51447271 66.125 120.3125 C63.57679008 117.83232481 60.8728382 115.56771589 58.125 113.3125 C57.25875 112.59707031 56.3925 111.88164062 55.5 111.14453125 C34.09774618 94.24954556 8.09992766 88.14497321 -18.875 90.3125 C-45.59198488 93.59188354 -75.1823564 111.71549129 -92.25 132.25 C-108.52749034 154.05766334 -116.33268972 177.92907871 -116.1875 205 C-116.18476578 206.05790237 -116.18476578 206.05790237 -116.18197632 207.13717651 C-116.04713541 238.13257658 -105.94342089 267.17109112 -84.125 289.625 C-64.36834037 309.10357689 -37.81472321 315.91398978 -10.875 317.3125 C-10.875 318.3025 -10.875 319.2925 -10.875 320.3125 C-13.41652435 320.79243156 -15.95821222 321.27146727 -18.5 321.75 C-19.21285156 321.88470703 -19.92570313 322.01941406 -20.66015625 322.15820312 C-21.71396484 322.35639648 -21.71396484 322.35639648 -22.7890625 322.55859375 C-23.4279541 322.67904053 -24.0668457 322.7994873 -24.72509766 322.92358398 C-25.78929932 323.11609741 -25.78929932 323.11609741 -26.875 323.3125 C-27.79144287 323.48813477 -28.70788574 323.66376953 -29.65209961 323.84472656 C-33.28697905 324.37229485 -36.86232617 324.51014553 -40.52734375 324.55078125 C-41.2558403 324.5605751 -41.98433685 324.57036896 -42.73490906 324.58045959 C-66.30280076 324.83164245 -87.69474208 322.81945417 -109.875 314.3125 C-110.99390625 313.88839844 -112.1128125 313.46429687 -113.265625 313.02734375 C-120.10147482 310.30176773 -126.50167868 306.97998815 -132.875 303.3125 C-133.68453125 302.86261719 -134.4940625 302.41273438 -135.328125 301.94921875 C-160.51163115 287.52963055 -177.26368893 268.84270785 -185.20214844 240.81787109 C-188.42430092 228.82014658 -190.47391044 216.64577521 -191.875 204.3125 C-192.205 204.3125 -192.535 204.3125 -192.875 204.3125 C-193.79920515 159.10227967 -184.4643859 116.16069676 -156.875 79.3125 C-156.11445313 78.25546875 -155.35390625 77.1984375 -154.5703125 76.109375 C-142.8589163 60.21233421 -128.07883808 45.6151474 -111.875 34.3125 C-111.32215332 33.92594238 -110.76930664 33.53938477 -110.19970703 33.14111328 C-89.19930877 18.67121606 -65.80824297 8.65977904 -40.875 3.3125 C-40.13572266 3.14878906 -39.39644531 2.98507812 -38.63476562 2.81640625 C-25.85508793 0.12477701 -13.00325822 0.02761263 0 0 Z " fill="#00C2CA" transform="translate(362.875,308.6875)"/>
<path d="M0 0 C1.5385968 -0.00021904 1.5385968 -0.00021904 3.10827637 -0.0004425 C6.45737922 0.00024735 9.80642459 0.0079958 13.15551758 0.01586914 C15.49392161 0.01773662 17.83232603 0.01915896 20.17073059 0.02015686 C26.29445495 0.02395605 32.41815521 0.03376389 38.54187012 0.04486084 C44.80305658 0.05513108 51.06424698 0.05966646 57.32543945 0.06469727 C69.58781978 0.07538872 81.85018229 0.0924336 94.11254883 0.11352539 C93.65021633 1.53285165 93.18503444 2.95124991 92.71868896 4.3692627 C92.33058611 5.55421955 92.33058611 5.55421955 91.93464279 6.76311493 C90.71242487 10.2575011 89.17407451 13.56436912 87.56567383 16.89477539 C87.23138367 17.59316528 86.89709351 18.29155518 86.55267334 19.0111084 C85.84958717 20.47452532 85.14360377 21.93655361 84.43481445 23.3972168 C83.3675687 25.60314962 82.31790102 27.81688657 81.26879883 30.03149414 C74.19248342 44.78305847 65.80427464 56.79969488 50.11254883 63.11352539 C38.50944153 67.0467821 27.15445997 67.25766941 15.01489258 67.21118164 C13.57044016 67.20931292 12.1259871 67.20789116 10.68153381 67.20689392 C6.90868329 67.20310448 3.13587222 67.19330536 -0.63696289 67.18218994 C-4.49844835 67.17189835 -8.35994028 67.16737982 -12.22143555 67.16235352 C-19.77679194 67.15167933 -27.33211599 67.13464667 -34.88745117 67.11352539 C-35.07464722 67.697229 -35.26184326 68.28093262 -35.45471191 68.88232422 C-36.89845517 73.3107137 -38.42663247 77.58288919 -40.41870117 81.80102539 C-40.89331787 82.81519531 -41.36793457 83.82936523 -41.85693359 84.87426758 C-42.36200439 85.94322266 -42.8670752 87.01217773 -43.38745117 88.11352539 C-47.37727606 96.65773327 -51.30116061 105.22165313 -55.07495117 113.86352539 C-59.89493653 124.88837296 -64.78677917 135.87994173 -69.69995117 146.86352539 C-70.06253021 147.67494995 -70.42510925 148.48637451 -70.79867554 149.3223877 C-71.85472338 151.68545687 -72.91191742 154.04800987 -73.96948242 156.41040039 C-74.27544342 157.09513428 -74.58140442 157.77986816 -74.89663696 158.48535156 C-77.84069395 165.05376865 -80.87035671 171.57648738 -83.88745117 178.11352539 C-105.99745117 178.11352539 -128.10745117 178.11352539 -150.88745117 178.11352539 C-149.94974446 174.36269854 -148.70832661 171.2032129 -147.16479492 167.66821289 C-146.62116357 166.41431165 -146.07754413 165.16040525 -145.53393555 163.90649414 C-144.67678108 161.93974743 -143.81840394 159.9735397 -142.95947266 158.00756836 C-142.12909089 156.10406691 -141.30303797 154.19873014 -140.47729492 152.29321289 C-139.98092529 151.15609863 -139.48455566 150.01898437 -138.97314453 148.84741211 C-137.76442262 146.29398952 -137.76442262 146.29398952 -137.88745117 144.11352539 C-137.22745117 144.11352539 -136.56745117 144.11352539 -135.88745117 144.11352539 C-135.71974213 143.5764093 -135.55203308 143.03929321 -135.37924194 142.48590088 C-133.49206126 136.61686777 -131.20552208 131.02891028 -128.67651367 125.41040039 C-128.27183868 124.50224579 -127.8671637 123.59409119 -127.45022583 122.65841675 C-126.14181441 119.7248982 -124.82738252 116.7941265 -123.51245117 113.86352539 C-122.60493018 111.8341974 -121.69770552 109.80473686 -120.79077148 107.77514648 C-118.99005307 103.74673395 -117.18698209 99.71938544 -115.38256836 95.69262695 C-113.22686052 90.87816501 -111.08797663 86.05649825 -108.95776367 81.23071289 C-95.24729517 50.20664337 -80.3798709 22.11856469 -47.66870117 8.16821289 C-31.99777302 2.22558564 -16.68986081 -0.06368031 0 0 Z " fill="#009FA7" transform="translate(673.887451171875,503.886474609375)"/>
<path d="M0 0 C53.13 0 106.26 0 161 0 C160.19140575 3.23437699 159.33779416 5.62083408 157.91796875 8.578125 C157.48653564 9.48022705 157.05510254 10.3823291 156.6105957 11.31176758 C156.14097412 12.28138428 155.67135254 13.25100098 155.1875 14.25 C154.70047607 15.25764404 154.21345215 16.26528809 153.71166992 17.3034668 C152.67558408 19.44151868 151.63718984 21.57845323 150.59667969 23.71435547 C149.01361024 26.97199287 147.44817305 30.23773073 145.8828125 33.50390625 C144.86047754 35.60730707 143.83707172 37.71018781 142.8125 39.8125 C142.35061279 40.7828418 141.88872559 41.75318359 141.4128418 42.75292969 C133.40165867 59.01954788 121.07592004 70.36540236 104.125 76.75 C90.49081424 81.35375104 76.23690648 82.14196127 61.93676758 82.15771484 C60.90227982 82.16279556 59.86779205 82.16787628 58.80195618 82.17311096 C56.57591887 82.18372971 54.34987145 82.19238243 52.12381935 82.19923019 C48.5748176 82.21117208 45.02592942 82.2306652 41.47697449 82.25234985 C31.39264842 82.31343006 21.30833499 82.36770625 11.22387695 82.40136719 C5.03070366 82.422582 -1.16225925 82.45809358 -7.35531044 82.50212479 C-9.68750814 82.51607658 -12.01974301 82.52495883 -14.35198021 82.52817917 C-34.62433724 82.5591154 -55.08288648 83.66637485 -74.8125 88.6875 C-75.83327637 88.94096191 -76.85405273 89.19442383 -77.90576172 89.45556641 C-109.84935713 97.74350003 -143.86140696 117.20795196 -164.6640625 143.26953125 C-167 146 -167 146 -170 147 C-168.46155637 143.4102982 -166.28488452 140.96162103 -163.625 138.125 C-161.16974526 135.50551417 -159.00477787 133.00717149 -157.01171875 130.015625 C-154.95359988 126.93044487 -152.71267257 124.33707511 -150.1875 121.625 C-145.8950267 116.97569911 -145.8950267 116.97569911 -141.6875 112.25 C-141.12675781 111.60933594 -140.56601562 110.96867187 -139.98828125 110.30859375 C-138.44869008 108.52097413 -136.92970831 106.7210886 -135.41796875 104.91015625 C-128.73829277 96.97520197 -121.6910202 89.47800913 -114.375 82.125 C-113.51696777 81.25786377 -112.65893555 80.39072754 -111.77490234 79.49731445 C-105.82694931 73.57711325 -99.57742794 68.20707653 -93 63 C-92.3807666 62.50113281 -91.7615332 62.00226563 -91.12353516 61.48828125 C-75.09699581 48.60778368 -57.37008982 38.86133972 -38 32 C-37.26007813 31.72671875 -36.52015625 31.4534375 -35.7578125 31.171875 C-20.05487261 25.60177557 -3.33270363 22.98579815 13 20 C13.89170898 19.83580566 14.78341797 19.67161133 15.70214844 19.50244141 C24.43753329 17.90996388 32.9942298 16.66689917 41.88671875 16.30859375 C45.05097764 16.09609141 45.05097764 16.09609141 48.17578125 15.04174805 C52.25073719 13.93169717 56.11184464 13.42246094 60.30078125 13.0234375 C61.90200776 12.85791198 63.50307873 12.690876 65.10400391 12.52246094 C65.91693909 12.43750366 66.72987427 12.35254639 67.56744385 12.26501465 C74.45620006 11.51451962 81.32110537 10.55476147 88.1875 9.625 C88.98550018 9.51772583 89.78350037 9.41045166 90.60568237 9.29992676 C101.33011052 7.85380429 112.01469207 6.28704238 122.6472168 4.25634766 C129.17202214 3.03290603 135.26811107 2.56099074 142 2 C95.14 1.67 48.28 1.34 0 1 C0 0.67 0 0.34 0 0 Z " fill="#00959D" transform="translate(752,366)"/>
<path d="M0 0 C0 0.33 0 0.66 0 1 C-0.55236328 1.11480713 -1.10472656 1.22961426 -1.67382812 1.34790039 C-27.09876656 6.73779776 -50.50418176 16.65882232 -65.5637207 39.10571289 C-80.40407268 62.02136649 -87.61049892 88.90023164 -82 116 C-76.43356113 140.15268391 -62.52295874 162.97603355 -41.625 176.6875 C-39.76165188 177.8112183 -37.8865242 178.91564052 -36 180 C-35.11054688 180.52464844 -34.22109375 181.04929687 -33.3046875 181.58984375 C-11.17635905 193.70186754 14.96948142 194.55772137 38.87890625 187.96875 C60.90424129 181.17052354 78.10885103 167.36472626 94 151 C94 154 94 154 92.71826172 155.52709961 C92.12803223 156.06343018 91.53780273 156.59976074 90.9296875 157.15234375 C90.28362549 157.75780029 89.63756348 158.36325684 88.97192383 158.98706055 C88.27993896 159.63070557 87.5879541 160.27435059 86.875 160.9375 C81.28436372 166.29575791 77.63247062 170.90826528 74.578125 178.08984375 C71.92397186 182.98425982 67.90055624 186.47363168 63.8828125 190.26171875 C61.57537258 192.45347401 59.48414223 194.63520209 57.4375 197.0625 C47.32835486 208.77165372 36.18270949 218.54013816 22 225 C21.34 225 20.68 225 20 225 C20 225.66 20 226.32 20 227 C19.05125 226.979375 18.1025 226.95875 17.125 226.9375 C14.09333717 226.77448174 14.09333717 226.77448174 12 228 C7.66576944 228.12619058 3.33475149 227.98679967 -0.9987793 227.86791992 C-3.13400092 227.81385463 -5.26860588 227.7844413 -7.40429688 227.75585938 C-34.60895746 227.16228015 -58.46379498 214.70040405 -77.109375 195.265625 C-87.4343387 183.98590904 -94.36537927 169.32117465 -99.3125 155 C-99.55508545 154.31325195 -99.7976709 153.62650391 -100.04760742 152.91894531 C-103.76587675 141.57881531 -104.33409397 129.77182256 -104.26074219 117.93115234 C-104.24996954 115.86916986 -104.26074252 113.80805107 -104.2734375 111.74609375 C-104.30554772 83.80602933 -93.60380963 56.20608272 -74.09375 35.9921875 C-66.08930331 28.04476731 -56.86790468 21.42333623 -47 16 C-46.17628906 15.52304687 -45.35257812 15.04609375 -44.50390625 14.5546875 C-30.82664735 6.79136967 -16.07940905 -0.41043537 0 0 Z " fill="#007B83" transform="translate(350,398)"/>
<path d="M0 0 C17.82 0 35.64 0 54 0 C52.04101939 5.87694182 50.11730564 11.26471176 47.453125 16.78125 C47.11883484 17.47963989 46.78454468 18.17802979 46.44012451 18.89758301 C45.73703834 20.36099993 45.03105495 21.82302822 44.32226562 23.28369141 C43.25501987 25.48962423 42.20535219 27.70336118 41.15625 29.91796875 C34.07993459 44.66953308 25.69172582 56.68616949 10 63 C-1.6031073 66.93325671 -12.95808886 67.14414402 -25.09765625 67.09765625 C-26.54210867 67.09578753 -27.98656173 67.09436577 -29.43101501 67.09336853 C-33.20386554 67.08957909 -36.97667661 67.07977997 -40.74951172 67.06866455 C-44.61099718 67.05837296 -48.47248911 67.05385443 -52.33398438 67.04882812 C-59.88934076 67.03815394 -67.44466482 67.02112128 -75 67 C-75.28548454 67.88690773 -75.28548454 67.88690773 -75.57673645 68.79173279 C-76.94604628 72.98346213 -78.34209626 77.05680819 -80.26171875 81.03515625 C-80.65810547 81.86337891 -81.05449219 82.69160156 -81.46289062 83.54492188 C-81.86701172 84.37572266 -82.27113281 85.20652344 -82.6875 86.0625 C-83.10322266 86.92810547 -83.51894531 87.79371094 -83.94726562 88.68554688 C-84.96010087 90.79270985 -85.9777159 92.8974094 -87 95 C-88.3514502 90.9456494 -87.2003054 89.61733638 -85.421875 85.77734375 C-85.13965591 85.16415283 -84.85743683 84.55096191 -84.56666565 83.91918945 C-83.6400508 81.91928814 -82.69682979 79.92790354 -81.75 77.9375 C-81.43010101 77.25938263 -81.11020203 76.58126526 -80.78060913 75.88259888 C-66.40384577 45.48286413 -48.30208706 20.3339954 -15.47314453 8.30761719 C-6.84515487 5.36653199 1.97448239 4.06123107 11 3 C5.555 2.01 5.555 2.01 0 1 C0 0.67 0 0.34 0 0 Z " fill="#008087" transform="translate(714,504)"/>
<path d="M0 0 C0.66 0.33 1.32 0.66 2 1 C-15.46414172 15.18961515 -37.30478196 17.13374491 -59.06323242 17.15771484 C-60.61496407 17.16533592 -60.61496407 17.16533592 -62.19804382 17.17311096 C-64.42408113 17.18372971 -66.65012855 17.19238243 -68.87618065 17.19923019 C-72.4251824 17.21117208 -75.97407058 17.2306652 -79.52302551 17.25234985 C-89.60735158 17.31343006 -99.69166501 17.36770625 -109.77612305 17.40136719 C-115.96929634 17.422582 -122.16225925 17.45809358 -128.35531044 17.50212479 C-130.68750814 17.51607658 -133.01974301 17.52495883 -135.35198021 17.52817917 C-155.62433724 17.5591154 -176.08288648 18.66637485 -195.8125 23.6875 C-196.83327637 23.94096191 -197.85405273 24.19442383 -198.90576172 24.45556641 C-220.37956575 30.02705766 -239.34850562 39.72738173 -257 53 C-257.66 52.67 -258.32 52.34 -259 52 C-255.9605301 48.58059636 -252.61875094 46.42725009 -248.70703125 44.1484375 C-246.84413578 43.09866896 -246.84413578 43.09866896 -246 41 C-243.7484406 39.70558124 -241.51411655 38.52060275 -239.1875 37.375 C-238.47899902 37.02526123 -237.77049805 36.67552246 -237.04052734 36.31518555 C-218.81415771 27.48610955 -200.29003696 21.34611297 -180.375 17.75 C-179.48192139 17.58661133 -178.58884277 17.42322266 -177.66870117 17.25488281 C-162.25200838 14.64720851 -146.58004024 14.83895779 -130.9942894 14.77020454 C-127.35138057 14.75354821 -123.70856496 14.73030886 -120.06570435 14.70530701 C-109.720121 14.63517466 -99.37450272 14.5744336 -89.02880859 14.52319336 C-82.66901947 14.49123732 -76.30934514 14.44993785 -69.94964981 14.40299797 C-67.54416095 14.38709867 -65.13864589 14.37472227 -62.73311996 14.36609077 C-29.14098146 14.77682958 -29.14098146 14.77682958 0 0 Z " fill="#037879" transform="translate(873,431)"/>
<path d="M0 0 C0 4.1623339 -1.73743514 5.3766373 -4.4375 8.5 C-5.36652792 9.58408514 -6.29490074 10.66873199 -7.22265625 11.75390625 C-7.69203613 12.29934082 -8.16141602 12.84477539 -8.64501953 13.40673828 C-10.60448231 15.71078406 -12.48523449 18.07615998 -14.375 20.4375 C-18.41705801 25.40676845 -22.70910429 30.1045586 -27.10302734 34.76147461 C-29.87421956 37.6444672 -29.87421956 37.6444672 -32 41 C-32.66 41 -33.32 41 -34 41 C-34.24878906 41.57363281 -34.49757813 42.14726563 -34.75390625 42.73828125 C-38.80242545 50.08653397 -46.74823788 55.60160423 -53.1953125 60.75390625 C-55.02210262 62.21686491 -56.83066949 63.70296955 -58.6171875 65.21484375 C-95.30123934 96.18402105 -142.56865673 110.20562825 -190.24853516 106.765625 C-202.79872572 105.62657203 -214.97863595 103.85074588 -227 100 C-223.23578296 98.63535684 -220.51613503 99.380733 -216.6875 100.3125 C-203.55378199 103.49878662 -190.58109284 104.32945068 -177.12744141 104.26074219 C-174.60685687 104.24992212 -172.08697075 104.26075909 -169.56640625 104.2734375 C-167.93229013 104.27211716 -166.29817443 104.26955738 -164.6640625 104.265625 C-163.92636627 104.26967346 -163.18867004 104.27372192 -162.42861938 104.27789307 C-157.744662 104.23640164 -153.57581867 103.56984665 -149.05477905 102.33050537 C-146.74045253 101.95825253 -145.21391018 102.28934872 -143 103 C-143 102.34 -143 101.68 -143 101 C-142.10539062 100.87882813 -141.21078125 100.75765625 -140.2890625 100.6328125 C-134.57420893 99.84077523 -128.86360576 99.03801063 -123.1875 98 C-122.00220703 97.7834375 -122.00220703 97.7834375 -120.79296875 97.5625 C-119.90544922 97.2840625 -119.90544922 97.2840625 -119 97 C-118.67 96.34 -118.34 95.68 -118 95 C-116.33728333 94.64749159 -114.66936039 94.31956966 -113 94 C-88.49624297 85.24291962 -65.450859 70.89105442 -47.2578125 52.1796875 C-45 50 -45 50 -43 50 C-42.835 49.319375 -42.67 48.63875 -42.5 47.9375 C-41.02562346 45.05017927 -40.10780902 44.07008264 -37.6875 42.0625 C-28.53919044 34.42781984 -20.70843993 25.09188502 -13.27734375 15.8203125 C-10.54808063 12.44033313 -7.7488549 9.12424185 -4.9375 5.8125 C-4.44749512 5.23491943 -3.95749023 4.65733887 -3.45263672 4.06225586 C-2.3025111 2.70753069 -1.15137047 1.35366734 0 0 Z " fill="#065959" transform="translate(529,576)"/>
<path d="M0 0 C0.99 0.495 0.99 0.495 2 1 C0.76636719 2.09054687 0.76636719 2.09054687 -0.4921875 3.203125 C-10.19583983 11.89025987 -18.86461381 20.7547048 -25.25390625 32.203125 C-25.83239067 33.23747681 -25.83239067 33.23747681 -26.42256165 34.29272461 C-31.00466412 42.63528225 -34.84514862 51.2992076 -38.6875 60 C-39.47445748 61.76668782 -40.26198355 63.53312246 -41.05004883 65.29931641 C-43.37911414 70.52742247 -45.69266707 75.76227114 -48 81 C-48.3295166 81.74793823 -48.6590332 82.49587646 -48.99853516 83.26647949 C-52.19349469 90.52351947 -55.36937022 97.78878705 -58.53515625 105.05859375 C-62.36981175 113.86418435 -66.24601015 122.65136864 -70.125 131.4375 C-70.44350922 132.15919373 -70.76201843 132.88088745 -71.09017944 133.62445068 C-74.38389135 141.08725403 -77.68698788 148.54572274 -81 156 C-60.21 156 -39.42 156 -18 156 C-17.01 154.02 -16.02 152.04 -15 150 C-14.67 150.99 -14.34 151.98 -14 153 C-14.99 154.98 -15.98 156.96 -17 159 C-39.11 159 -61.22 159 -84 159 C-83.06229329 155.24917315 -81.82087543 152.08968751 -80.27734375 148.5546875 C-79.7337124 147.30078626 -79.19009296 146.04687986 -78.64648438 144.79296875 C-77.78932991 142.82622204 -76.93095277 140.86001431 -76.07202148 138.89404297 C-75.24163972 136.99054152 -74.41558679 135.08520475 -73.58984375 133.1796875 C-73.09347412 132.04257324 -72.59710449 130.90545898 -72.08569336 129.73388672 C-70.87697145 127.18046413 -70.87697145 127.18046413 -71 125 C-70.34 125 -69.68 125 -69 125 C-68.83229095 124.46288391 -68.66458191 123.92576782 -68.49179077 123.37237549 C-66.60461009 117.50334238 -64.31807091 111.91538489 -61.7890625 106.296875 C-61.38438751 105.3887204 -60.97971252 104.4805658 -60.56277466 103.54489136 C-59.25436324 100.61137281 -57.93993135 97.68060111 -56.625 94.75 C-55.717479 92.72067201 -54.81025435 90.69121147 -53.90332031 88.66162109 C-52.1026019 84.63320856 -50.29953092 80.60586005 -48.49511719 76.57910156 C-46.33940935 71.76463962 -44.20052546 66.94297286 -42.0703125 62.1171875 C-20.72480302 13.81653535 -20.72480302 13.81653535 0 0 Z " fill="#056E6E" transform="translate(607,523)"/>
<path d="M0 0 C0.33 0 0.66 0 1 0 C1.06469482 0.58676514 1.12938965 1.17353027 1.19604492 1.77807617 C4.01461824 26.7000708 7.67528385 55.10418096 24.4375 74.875 C25.2109375 75.926875 25.2109375 75.926875 26 77 C25.67 77.99 25.34 78.98 25 80 C25.38932856 82.14255793 25.38932856 82.14255793 26 84 C26.66 84 27.32 84 28 84 C28.12375 84.639375 28.2475 85.27875 28.375 85.9375 C28.58125 86.618125 28.7875 87.29875 29 88 C29.66 88.33 30.32 88.66 31 89 C32.08344805 90.63981327 33.11725207 92.31260812 34.125 94 C37.59123864 99.55892629 41.55285618 104.21688905 46 109 C47.14982772 110.32989023 48.29577186 111.66314973 49.4375 113 C56.19807744 121.43483778 56.19807744 121.43483778 65 127 C66.21780714 128.4811168 67.43412056 129.9635391 68.63671875 131.45703125 C72.77380545 136.13940731 79.07574365 138.73061832 84.51171875 141.6328125 C87 143 87 143 90 145 C90 145.66 90 146.32 90 147 C90.67804688 147.25394531 91.35609375 147.50789062 92.0546875 147.76953125 C94.84210031 148.93403395 97.49145305 150.26505427 100.16601562 151.66601562 C109.80032244 156.68968707 119.74969327 160.43467592 130 164 C126.71045202 165.10518043 124.91134125 164.90975622 121.68359375 163.69921875 C120.84666992 163.38694336 120.00974609 163.07466797 119.14746094 162.75292969 C118.25317383 162.40133789 117.35888672 162.04974609 116.4375 161.6875 C115.03999512 161.14270996 115.03999512 161.14270996 113.61425781 160.58691406 C93.0283068 152.3539279 74.71874627 141.00367788 58.734375 125.6171875 C56.58563473 123.5605361 54.42358128 121.63158202 52.125 119.75 C22.82257726 94.88950931 4.11632168 51.40521613 0 14 C-0.27509945 9.33086114 -0.19989045 4.6715139 0 0 Z " fill="#046062" transform="translate(171,510)"/>
<path d="M0 0 C41.91 0 83.82 0 127 0 C124.16138214 2.83861786 121.07325456 2.70704565 117.25 3.125 C116.19425781 3.25455078 116.19425781 3.25455078 115.1171875 3.38671875 C111.05615123 3.86226761 107.09599982 4.09016352 103 4 C102.505 3.01 102.505 3.01 102 2 C101.29733505 2.00222061 100.5946701 2.00444122 99.87071228 2.00672913 C90.89298544 2.03376571 81.91525952 2.05182559 72.9375 2.0625 C71.86517687 2.06378403 71.86517687 2.06378403 70.77119064 2.06509399 C47.16763144 2.09006695 23.59069323 1.83925638 0 1 C0 0.67 0 0.34 0 0 Z " fill="#02B9BF" transform="translate(769,367)"/>
<path d="M0 0 C0.33 0 0.66 0 1 0 C1.06469482 0.58676514 1.12938965 1.17353027 1.19604492 1.77807617 C5.32537251 39.06299533 5.32537251 39.06299533 22 72 C22.78375 73.010625 23.5675 74.02125 24.375 75.0625 C24.91125 75.701875 25.4475 76.34125 26 77 C25.67 77.66 25.34 78.32 25 79 C24.34 79 23.68 79 23 79 C21.5625 77.25 21.5625 77.25 20 75 C19.31164062 74.15888672 19.31164062 74.15888672 18.609375 73.30078125 C5.05694709 53.92607241 -1.42444301 23.18676678 0 0 Z " fill="#047173" transform="translate(171,510)"/>
<path d="M0 0 C0 3 0 3 -1.34521484 4.7175293 C-1.96090332 5.33023682 -2.5765918 5.94294434 -3.2109375 6.57421875 C-3.87867188 7.24130859 -4.54640625 7.90839844 -5.234375 8.59570312 C-5.94078125 9.28599609 -6.6471875 9.97628906 -7.375 10.6875 C-8.07367188 11.38939453 -8.77234375 12.09128906 -9.4921875 12.81445312 C-14.73316782 18 -14.73316782 18 -17 18 C-17 18.66 -17 19.32 -17 20 C-19.42183308 21.82097323 -21.83078114 23.4891738 -24.375 25.125 C-25.13578857 25.61419922 -25.89657715 26.10339844 -26.68041992 26.60742188 C-40.07779017 34.99705719 -55.82589662 42.93312135 -72 42 C-68.73769633 40.05836082 -65.40935229 39.31068617 -61.7565918 38.4543457 C-36.39959393 32.44374177 -17.89385251 18.39090397 0 0 Z " fill="#036C6E" transform="translate(444,549)"/>
<path d="M0 0 C0 4.1623339 -1.73743514 5.3766373 -4.4375 8.5 C-5.36652792 9.58408514 -6.29490074 10.66873199 -7.22265625 11.75390625 C-7.69203613 12.29934082 -8.16141602 12.84477539 -8.64501953 13.40673828 C-10.60448231 15.71078406 -12.48523449 18.07615998 -14.375 20.4375 C-18.41705801 25.40676845 -22.70910429 30.1045586 -27.10302734 34.76147461 C-29.87421956 37.6444672 -29.87421956 37.6444672 -32 41 C-32.66 41 -33.32 41 -34 41 C-34.23460937 41.56203125 -34.46921875 42.1240625 -34.7109375 42.703125 C-36.30663 45.54635891 -38.28924543 47.48098127 -40.625 49.75 C-41.44226563 50.54921875 -42.25953125 51.3484375 -43.1015625 52.171875 C-43.72804688 52.77515625 -44.35453125 53.3784375 -45 54 C-45.66 53.34 -46.32 52.68 -47 52 C-46.38125 51.773125 -45.7625 51.54625 -45.125 51.3125 C-42.80709666 50.19124075 -42.80709666 50.19124075 -42.25 47.8125 C-40.94607321 44.87866472 -40.09742479 44.05483866 -37.6875 42.0625 C-28.53919044 34.42781984 -20.70843993 25.09188502 -13.27734375 15.8203125 C-10.54808063 12.44033313 -7.7488549 9.12424185 -4.9375 5.8125 C-4.44749512 5.23491943 -3.95749023 4.65733887 -3.45263672 4.06225586 C-2.3025111 2.70753069 -1.15137047 1.35366734 0 0 Z " fill="#056867" transform="translate(529,576)"/>
<path d="M0 0 C0.99 0.33 1.98 0.66 3 1 C-7 11 -7 11 -9.6953125 13.6875 C-11.2124314 15.20976168 -12.7105909 16.75119609 -14.1875 18.3125 C-16 20 -16 20 -18 20 C-18.268125 20.61875 -18.53625 21.2375 -18.8125 21.875 C-20 24 -20 24 -23 26 C-22.53917014 21.35055592 -20.86948806 19.45273492 -17.5 16.3125 C-14.32803323 13.4714243 -14.32803323 13.4714243 -12 10 C-11.34 10 -10.68 10 -10 10 C-9.79375 9.443125 -9.5875 8.88625 -9.375 8.3125 C-7.17483331 4.61221966 -3.8633128 1.9316564 0 0 Z " fill="#00D0D6" transform="translate(549,434)"/>
<path d="M0 0 C3.50151214 3.42661349 6.72680171 6.98208703 9.9375 10.6875 C22.22999232 24.35076069 38.50130463 32.84012829 56 38 C51.91505575 39.71671075 48.57777052 38.13292917 44.6875 36.625 C43.98326904 36.35316895 43.27903809 36.08133789 42.5534668 35.80126953 C25.53375662 28.95537382 10.18683333 17.44951762 0 2 C0 1.34 0 0.68 0 0 Z " fill="#026164" transform="translate(282,550)"/>
<path d="M0 0 C5.61 0 11.22 0 17 0 C16.19140575 3.23437699 15.33779416 5.62083408 13.91796875 8.578125 C13.27021484 9.93224487 13.27021484 9.93224487 12.609375 11.3137207 C12.14015625 12.28269287 11.6709375 13.25166504 11.1875 14.25 C10.70410156 15.25184326 10.22070312 16.25368652 9.72265625 17.28588867 C8.15414311 20.5267284 6.57753956 23.76354554 5 27 C4.45682129 28.12035645 3.91364258 29.24071289 3.35400391 30.39501953 C1.74564711 33.70566916 0.12495485 37.00997033 -1.5 40.3125 C-2.00378174 41.34987305 -2.50756348 42.38724609 -3.02661133 43.45605469 C-3.50251709 44.41543945 -3.97842285 45.37482422 -4.46875 46.36328125 C-4.88576172 47.21188721 -5.30277344 48.06049316 -5.73242188 48.93481445 C-7 51 -7 51 -10 53 C-8.29197757 48.4566046 -6.15234032 44.17694379 -3.97265625 39.84765625 C-3.38828041 38.68102699 -3.38828041 38.68102699 -2.792099 37.49082947 C-1.55078219 35.01377024 -0.30669169 32.53811626 0.9375 30.0625 C1.77036735 28.4017855 2.60305153 26.74097913 3.43554688 25.08007812 C4.96883557 22.02164542 6.50318374 18.9637496 8.03881836 15.90649414 C8.37275604 15.23772247 8.70669373 14.56895081 9.05075073 13.87991333 C9.91208447 12.17410977 10.8031717 10.48341129 11.69750977 8.79467773 C13.25821975 5.73361687 13.25821975 5.73361687 14 1 C9.38 1 4.76 1 0 1 C0 0.67 0 0.34 0 0 Z " fill="#057271" transform="translate(896,366)"/>
<path d="M0 0 C0.66 0.33 1.32 0.66 2 1 C-2.22948983 5.27880227 -6.46541185 9.55108979 -10.70751953 13.81738281 C-12.15072972 15.27067173 -13.59214264 16.7257477 -15.03173828 18.18261719 C-17.09722341 20.27226835 -19.16901486 22.35547908 -21.2421875 24.4375 C-21.88807831 25.09371338 -22.53396912 25.74992676 -23.19943237 26.42602539 C-23.79990387 27.02664795 -24.40037537 27.62727051 -25.01904297 28.24609375 C-25.8118013 29.04551392 -25.8118013 29.04551392 -26.62057495 29.86108398 C-28 31 -28 31 -30 31 C-30.2475 31.598125 -30.495 32.19625 -30.75 32.8125 C-32.16370012 35.28647521 -33.65055383 36.43370255 -36 38 C-31.92957971 28.45786719 -21.40489104 20.31269381 -14.1875 13.0625 C-13.47070068 12.34102783 -12.75390137 11.61955566 -12.01538086 10.8762207 C-8.15928533 7.03179535 -4.24782972 3.40759966 0 0 Z " fill="#00777E" transform="translate(654,433)"/>
<path d="M0 0 C-2.72785366 2.72785366 -5.51137211 2.7289023 -9.18359375 3.21875 C-9.90726135 3.32165848 -10.63092896 3.42456696 -11.37652588 3.53059387 C-13.72906575 3.86239898 -16.0831129 4.18158967 -18.4375 4.5 C-20.03952004 4.72253612 -21.64148954 4.94543647 -23.2434082 5.16870117 C-34.13919675 6.67363053 -45.04326 8.01989108 -56 9 C-56 8.34 -56 7.68 -56 7 C-55.40461426 6.91435791 -54.80922852 6.82871582 -54.19580078 6.74047852 C-51.50500371 6.35138747 -48.81500768 5.95700999 -46.125 5.5625 C-45.18785156 5.42779297 -44.25070312 5.29308594 -43.28515625 5.15429688 C-42.38925781 5.02216797 -41.49335937 4.89003906 -40.5703125 4.75390625 C-39.74289551 4.63345947 -38.91547852 4.5130127 -38.06298828 4.38891602 C-35.94672233 4.08743328 -35.94672233 4.08743328 -34 3 C-31.7320087 2.81515724 -29.4601194 2.67718419 -27.1875 2.5625 C-21.01054311 2.21672185 -15.00159963 1.47775952 -8.90234375 0.40234375 C-5.89823746 -0.01410705 -3.028837 -0.06750751 0 0 Z " fill="#00D4DD" transform="translate(852,373)"/>
<path d="M0 0 C0 0.99 0 1.98 0 3 C-1.765625 4.65625 -1.765625 4.65625 -4.25 6.5 C-8.43195663 9.72421123 -12.4183904 13.06453206 -16.3125 16.625 C-17.27800781 17.50414062 -18.24351562 18.38328125 -19.23828125 19.2890625 C-21.23879447 21.25279118 -22.93548459 23.10281671 -24.66796875 25.2734375 C-27 28 -27 28 -30 29 C-25.98292863 19.69843903 -16.32532886 11.3869775 -8 6 C-5.31032531 4.03016591 -2.65243553 2.01962096 0 0 Z " fill="#047676" transform="translate(612,484)"/>
<path d="M0 0 C4.5005429 1.32802905 8.08670631 3.1518297 12.0625 5.625 C20.50004429 10.68119754 29.62250177 13.88775239 38.84423828 17.21386719 C41.25098396 18.09152529 43.63110264 19.02486138 46 20 C42.71045202 21.10518043 40.91134125 20.90975622 37.68359375 19.69921875 C36.84546143 19.38621826 36.0073291 19.07321777 35.14379883 18.75073242 C34.25072021 18.39986572 33.3576416 18.04899902 32.4375 17.6875 C31.51670654 17.33083252 30.59591309 16.97416504 29.6472168 16.60668945 C23.02307128 13.96936629 16.63054881 10.98874014 10.3125 7.6875 C9.50546631 7.26750732 8.69843262 6.84751465 7.86694336 6.41479492 C2.26055381 3.39083072 2.26055381 3.39083072 0 0 Z " fill="#055858" transform="translate(255,654)"/>
<path d="M0 0 C-2.11659561 2.11659561 -3.18850464 2.54772223 -5.97265625 3.4453125 C-6.78226807 3.7139209 -7.59187988 3.9825293 -8.42602539 4.25927734 C-9.29606201 4.54496582 -10.16609863 4.8306543 -11.0625 5.125 C-19.58063768 7.99912823 -27.62906663 11.43614693 -35.69140625 15.3984375 C-39 17 -39 17 -42 18 C-42 17.34 -42 16.68 -42 16 C-9.96433838 -0.58613755 -9.96433838 -0.58613755 0 0 Z " fill="#007D84" transform="translate(725,396)"/>
<path d="M0 0 C8.63450062 3.11926986 15.13557269 9.90461793 21.73828125 16.08203125 C24.12640758 18.26104019 24.12640758 18.26104019 28 20 C31.465 16.535 31.465 16.535 35 13 C35 16.77910478 34.00296038 17.46106101 31.5 20.1875 C30.52546875 21.26064453 30.52546875 21.26064453 29.53125 22.35546875 C29.0259375 22.89816406 28.520625 23.44085938 28 24 C24.18213176 22.25671719 22.63127021 20.28908776 20 17 C14.56871268 11.71372278 8.45161225 7.28026142 2.34375 2.8203125 C1.5703125 2.21960938 0.796875 1.61890625 0 1 C0 0.67 0 0.34 0 0 Z " fill="#059391" transform="translate(409,412)"/>
<path d="M0 0 C10.56 0 21.12 0 32 0 C32 0.33 32 0.66 32 1 C31.27409668 1.08564209 30.54819336 1.17128418 29.80029297 1.25952148 C26.49168633 1.65071152 23.18334282 2.04408534 19.875 2.4375 C18.16183594 2.63956055 18.16183594 2.63956055 16.4140625 2.84570312 C14.75117187 3.04389648 14.75117187 3.04389648 13.0546875 3.24609375 C12.03874512 3.36654053 11.02280273 3.4869873 9.97607422 3.61108398 C6.96965066 4.00396608 3.98751926 4.48390313 1 5 C0.67 3.35 0.34 1.7 0 0 Z " fill="#01BCC5" transform="translate(704,506)"/>
<path d="M0 0 C0 3 0 3 -1.94140625 5.19921875 C-2.80636719 6.02035156 -3.67132813 6.84148437 -4.5625 7.6875 C-12.68615627 15.58328372 -19.78205251 24.2861801 -27 33 C-27 23.74369037 -12.72132777 12.68539587 -6.44824219 6.38232422 C-4.30727047 4.24619633 -2.15661486 2.12033536 0 0 Z " fill="#01DFE7" transform="translate(234,359)"/>
<path d="M0 0 C0.33 0.66 0.66 1.32 1 2 C1.66 2 2.32 2 3 2 C0.92476563 6.5094282 -1.91060099 10.55849743 -4.63476562 14.69140625 C-7.02380573 18.35645614 -9.11679194 22.03981328 -11 26 C-11.66 26 -12.32 26 -13 26 C-11.7151482 21.65962998 -10.05657524 18.20811267 -7.5625 14.4375 C-5.30216928 10.99574372 -3.0960703 7.54473051 -1 4 C-2.65 4.66 -4.3 5.32 -6 6 C-4.95125002 3.37812506 -4.35068687 2.20628639 -1.875 0.75 C-1.25625 0.5025 -0.6375 0.255 0 0 Z " fill="#037275" transform="translate(287,426)"/>
<path d="M0 0 C0 4.16951918 -1.72957836 5.19414465 -4.5625 8.1875 C-5.49279823 9.18172056 -6.42248378 10.17651474 -7.3515625 11.171875 C-8.22554688 12.10515625 -9.09953125 13.0384375 -10 14 C-11.1535513 15.3057219 -12.30043557 16.61739593 -13.4375 17.9375 C-18.17696564 23.39472125 -23.10187767 28.68558156 -28 34 C-28 30.48453428 -27.60193564 30.22022203 -25.25390625 27.8125 C-24.66794678 27.20132324 -24.0819873 26.59014648 -23.47827148 25.96044922 C-22.84606689 25.31350098 -22.2138623 24.66655273 -21.5625 24 C-16.42285979 18.63255151 -11.56129253 13.21059367 -6.96484375 7.3671875 C-4.78872753 4.74546497 -2.4395852 2.37616444 0 0 Z " fill="#047878" transform="translate(474,515)"/>
<path d="M0 0 C0 3.48560546 -0.77785245 4.69664268 -2.5 7.6875 C-5.20003006 12.50898224 -7.76711524 17.37691233 -10.25 22.3125 C-10.59095703 22.98176514 -10.93191406 23.65103027 -11.28320312 24.34057617 C-13.19862373 28.16237339 -14.66175824 31.93102166 -16 36 C-17.625 37.875 -17.625 37.875 -19 39 C-18.46507765 33.00688848 -15.96630765 28.14573417 -13.375 22.8125 C-12.92713135 21.88083008 -12.4792627 20.94916016 -12.01782227 19.98925781 C-4.41866784 4.41866784 -4.41866784 4.41866784 0 0 Z " fill="#01D4DB" transform="translate(202,397)"/>
<path d="M0 0 C0 3 0 3 -1.21484375 4.4375 C-1.78332031 4.953125 -2.35179687 5.46875 -2.9375 6 C-6.08656777 8.9963857 -8.79861429 12.1568079 -11.5 15.5625 C-15.0211326 19.94730663 -18.58749369 23.52632482 -23 27 C-21.38389822 23.07651592 -18.68683235 20.28589297 -15.8125 17.25 C-14.81827952 16.18427514 -13.82479055 15.11786738 -12.83203125 14.05078125 C-12.34814941 13.53209473 -11.86426758 13.0134082 -11.36572266 12.47900391 C-8.99564537 9.91233815 -6.71550866 7.26927882 -4.4375 4.62109375 C-3.01449184 3.0163427 -1.53215479 1.5002349 0 0 Z " fill="#038685" transform="translate(506,479)"/>
<path d="M0 0 C0.33 0.66 0.66 1.32 1 2 C-6 9 -13 16 -20 23 C-20 20 -20 20 -18.06640625 17.80859375 C-17.24011719 17.02613281 -16.41382813 16.24367188 -15.5625 15.4375 C-12.36158822 12.53104307 -12.36158822 12.53104307 -10 9 C-9.34 9 -8.68 9 -8 9 C-7.79375 8.443125 -7.5875 7.88625 -7.375 7.3125 C-5.44999226 4.07498698 -2.96149098 2.31768859 0 0 Z " fill="#039495" transform="translate(547,435)"/>
<path d="M0 0 C0.66 0.66 1.32 1.32 2 2 C-3.61 7.61 -9.22 13.22 -15 19 C-15 15.28276664 -14.23006589 14.82298531 -11.71875 12.20703125 C-11.04199219 11.49482422 -10.36523438 10.78261719 -9.66796875 10.04882812 C-8.95253906 9.31083984 -8.23710938 8.57285156 -7.5 7.8125 C-6.42685547 6.68811523 -6.42685547 6.68811523 -5.33203125 5.54101562 C-3.56121397 3.68756021 -1.78375194 1.84099646 0 0 Z " fill="#00767B" transform="translate(617,471)"/>
<path d="M0 0 C7.92 0 15.84 0 24 0 C21.49183541 2.50816459 20.09162264 3.61410019 17 5 C16.34 4.34 15.68 3.68 15 3 C15 2.67 15 2.34 15 2 C10.05 1.67 5.1 1.34 0 1 C0 0.67 0 0.34 0 0 Z " fill="#00929A" transform="translate(337,625)"/>
<path d="M0 0 C-3.58909399 2.39272933 -6.40204647 2.40163297 -10.5625 2.5625 C-12.00137539 2.63395546 -13.44017895 2.70687236 -14.87890625 2.78125 C-15.93102295 2.83345703 -15.93102295 2.83345703 -17.00439453 2.88671875 C-21.01625071 3.11445318 -25.00804436 3.54898578 -29 4 C-29.33 3.34 -29.66 2.68 -30 2 C-25.38480626 1.14453574 -20.80476737 0.7093722 -16.125 0.4375 C-15.12146484 0.37272461 -15.12146484 0.37272461 -14.09765625 0.30664062 C-9.39097632 0.02097508 -4.71515219 -0.03691954 0 0 Z " fill="#00D2DB" transform="translate(712,368)"/>
<path d="M0 0 C0.66 0.33 1.32 0.66 2 1 C1.15695312 1.83144531 0.31390625 2.66289062 -0.5546875 3.51953125 C-1.66159075 4.61705397 -2.7683543 5.71471759 -3.875 6.8125 C-4.43058594 7.35970703 -4.98617187 7.90691406 -5.55859375 8.47070312 C-6.09355469 9.00244141 -6.62851562 9.53417969 -7.1796875 10.08203125 C-7.67194824 10.56905518 -8.16420898 11.0560791 -8.67138672 11.55786133 C-10.22588489 13.17003501 -10.22588489 13.17003501 -12 16 C-14.125 16.6875 -14.125 16.6875 -16 17 C-16 16.34 -16 15.68 -16 15 C-15.34 15 -14.68 15 -14 15 C-13.69449219 14.18789063 -13.69449219 14.18789063 -13.3828125 13.359375 C-11.44687192 10.05624474 -8.71300664 7.75877153 -5.875 5.25 C-5.31167969 4.74339844 -4.74835937 4.23679687 -4.16796875 3.71484375 C-2.78348469 2.47115468 -1.39238512 1.23483695 0 0 Z " fill="#04A1A4" transform="translate(564,418)"/>
<path d="M0 0 C0.66 0.66 1.32 1.32 2 2 C-3 7 -8 12 -13 17 C-13 13.45042562 -12.51411281 13.11575285 -10.15625 10.64453125 C-9.56972656 10.02255859 -8.98320312 9.40058594 -8.37890625 8.75976562 C-7.75886719 8.11716797 -7.13882812 7.47457031 -6.5 6.8125 C-5.87996094 6.15830078 -5.25992187 5.50410156 -4.62109375 4.83007812 C-3.0872384 3.21363056 -1.54678589 1.60406254 0 0 Z " fill="#00C0C7" transform="translate(506,481)"/>
<path d="M0 0 C0 4.25491168 -2.47159742 6.07313316 -5.25 9 C-5.98669922 9.80050781 -5.98669922 9.80050781 -6.73828125 10.6171875 C-9.31357494 13.37790233 -11.88308798 15.8626889 -15 18 C-13.66465724 15.05886531 -12.17535119 12.89154831 -9.9609375 10.546875 C-9.38085938 9.928125 -8.80078125 9.309375 -8.203125 8.671875 C-7.59984375 8.03765625 -6.9965625 7.4034375 -6.375 6.75 C-5.76398437 6.1003125 -5.15296875 5.450625 -4.5234375 4.78125 C-3.01971926 3.18354937 -1.51184263 1.59000851 0 0 Z " fill="#00C6CD" transform="translate(522,463)"/>
<path d="M0 0 C5.94 0 11.88 0 18 0 C18 0.33 18 0.66 18 1 C6.47835991 3.29612756 6.47835991 3.29612756 1 3 C0.67 2.01 0.34 1.02 0 0 Z " fill="#01C4CD" transform="translate(871,368)"/>
<path d="M0 0 C0 4.25128701 -1.94169362 5.44437775 -4.8125 8.5 C-6.15248047 9.93859375 -6.15248047 9.93859375 -7.51953125 11.40625 C-9.32570207 13.29490736 -11.13697327 15.16792056 -13 17 C-12.41503796 13.81150227 -11.5016539 12.1070041 -9.27734375 9.765625 C-8.73916016 9.19199219 -8.20097656 8.61835937 -7.64648438 8.02734375 C-7.08251953 7.44082031 -6.51855469 6.85429688 -5.9375 6.25 C-5.36966797 5.64800781 -4.80183594 5.04601562 -4.21679688 4.42578125 C-2.81768425 2.94436788 -1.40969053 1.4713512 0 0 Z " fill="#048485" transform="translate(474,515)"/>
<path d="M0 0 C-2.58789062 1.07421875 -2.58789062 1.07421875 -5.17578125 2.1484375 C-7.26533932 3.06806692 -7.26533932 3.06806692 -10 5 C-11.32 5 -12.64 5 -14 5 C-14 5.66 -14 6.32 -14 7 C-15.32 6.34 -16.64 5.68 -18 5 C-15.75564555 3.96483652 -13.50593133 2.94685023 -11.25 1.9375 C-10.29867188 1.49567383 -10.29867188 1.49567383 -9.328125 1.04492188 C-3.48702331 -1.54098252 -3.48702331 -1.54098252 0 0 Z " fill="#01E2EA" transform="translate(302,321)"/>
<path d="M0 0 C0 3 0 3 -2.046875 5.15625 C-3.38492188 6.31640625 -3.38492188 6.31640625 -4.75 7.5 C-5.63171875 8.2734375 -6.5134375 9.046875 -7.421875 9.84375 C-9.56945773 11.6399101 -11.7384527 13.35139542 -14 15 C-12.41948722 11.14750011 -9.94555446 8.71095984 -7 5.8125 C-6.113125 4.93207031 -5.22625 4.05164063 -4.3125 3.14453125 C-2 1 -2 1 0 0 Z " fill="#00D9E0" transform="translate(567,418)"/>
<path d="M0 0 C-1.65 0.33 -3.3 0.66 -5 1 C-5 1.66 -5 2.32 -5 3 C-12.625 4.25 -12.625 4.25 -16 2 C-12.94736336 1.01879536 -11.05263664 1.01879536 -8 2 C-8 1.34 -8 0.68 -8 0 C-4.94736336 -0.98120464 -3.05263664 -0.98120464 0 0 Z " fill="#026D73" transform="translate(394,677)"/>
<path d="M0 0 C0 3.93482147 -1.34950326 5.04921209 -3.8125 8.0625 C-4.52019531 8.94035156 -5.22789062 9.81820312 -5.95703125 10.72265625 C-8 13 -8 13 -11 15 C-9.44476633 11.50683117 -7.34563239 8.77131239 -4.9375 5.8125 C-4.22464844 4.93207031 -3.51179687 4.05164063 -2.77734375 3.14453125 C-1.88495567 2.06778168 -0.98887464 0.98887464 0 0 Z " fill="#00B6BF" transform="translate(596,535)"/>
<path d="M0 0 C0.66 0.33 1.32 0.66 2 1 C-1 4 -4 7 -7 10 C-7.99 9.67 -8.98 9.34 -10 9 C-6.7 6.03 -3.4 3.06 0 0 Z " fill="#00BAC5" transform="translate(608,524)"/>
<path d="M0 0 C0.66 0.33 1.32 0.66 2 1 C-2.46825784 4.60636039 -6.32146365 7.58036591 -12 9 C-10.27823503 5.25262918 -9.21871539 4.10743914 -5.4375 2.25 C-3.7359375 1.63125 -3.7359375 1.63125 -2 1 C-1.34 0.67 -0.68 0.34 0 0 Z " fill="#01D0D6" transform="translate(595,397)"/>
<path d="M0 0 C4.77609498 1.64178265 8.79382904 4.26546702 13 7 C11 8 11 8 8.1875 7.375 C4.56509068 5.81239206 2.57636928 3.95524712 0 1 C0 0.67 0 0.34 0 0 Z " fill="#037278" transform="translate(248,648)"/>
<path d="M0 0 C5.61 0 11.22 0 17 0 C16.67 1.32 16.34 2.64 16 4 C15.34 4 14.68 4 14 4 C14 3.01 14 2.02 14 1 C9.38 1 4.76 1 0 1 C0 0.67 0 0.34 0 0 Z " fill="#027C7E" transform="translate(896,366)"/>
<path d="M0 0 C0 4.32991847 -2.11505369 5.91377837 -5 9 C-5.99 9.33 -6.98 9.66 -8 10 C-6.34908222 5.70761377 -3.26245434 3.1206085 0 0 Z " fill="#00939A" transform="translate(436,559)"/>
<path d="M0 0 C0.33 0.66 0.66 1.32 1 2 C-1.85276137 4.93200474 -4.65079784 7.64315404 -8 10 C-7.44449305 6.40094092 -6.25112752 5.00090201 -3.4375 2.75 C-2.79683594 2.22921875 -2.15617188 1.7084375 -1.49609375 1.171875 C-1.00238281 0.78515625 -0.50867188 0.3984375 0 0 Z " fill="#049EA0" transform="translate(547,435)"/>
<path d="M0 0 C0.33 0.99 0.66 1.98 1 3 C-1.31 4.98 -3.62 6.96 -6 9 C-4.68775452 5.06326356 -3.08089673 2.77280706 0 0 Z " fill="#00B4BB" transform="translate(479,511)"/>
<path d="M0 0 C3 1 3 1 3 1 Z " fill="#02AEB2" transform="translate(648,504)"/>
<path d="M0 0 C2 1 2 1 2 1 Z " fill="#036B6D" transform="translate(520,680)"/>
<path d="M0 0 C2 1 2 1 2 1 Z " fill="#04C5C9" transform="translate(673,368)"/>
<path d="M0 0 C2 1 2 1 2 1 Z " fill="#04C5CA" transform="translate(289,320)"/>
<path d="" fill="#141819" transform="translate(0,0)"/>
<path d="" fill="#171A1B" transform="translate(0,0)"/>
<path d="" fill="#1B1E1F" transform="translate(0,0)"/>
<path d="" fill="#171A1B" transform="translate(0,0)"/>
<path d="" fill="#1D1E20" transform="translate(0,0)"/>
<path d="" fill="#141817" transform="translate(0,0)"/>
<path d="" fill="#121718" transform="translate(0,0)"/>
<path d="" fill="#0D1415" transform="translate(0,0)"/>
<path d="" fill="#0F1616" transform="translate(0,0)"/>
<path d="" fill="#181C1C" transform="translate(0,0)"/>
<path d="" fill="#17181A" transform="translate(0,0)"/>
<path d="" fill="#0C1513" transform="translate(0,0)"/>
<path d="" fill="#0D1415" transform="translate(0,0)"/>
<path d="" fill="#101716" transform="translate(0,0)"/>
<path d="" fill="#0D1313" transform="translate(0,0)"/>
<path d="" fill="#141818" transform="translate(0,0)"/>
<path d="" fill="#0A1111" transform="translate(0,0)"/>
<path d="" fill="#08100F" transform="translate(0,0)"/>
<path d="" fill="#111416" transform="translate(0,0)"/>
<path d="" fill="#037075" transform="translate(0,0)"/>
<path d="" fill="#036D70" transform="translate(0,0)"/>
<path d="" fill="#05696D" transform="translate(0,0)"/>
<path d="" fill="#058082" transform="translate(0,0)"/>
<path d="" fill="#027477" transform="translate(0,0)"/>
<path d="" fill="#027376" transform="translate(0,0)"/>
<path d="" fill="#0B1415" transform="translate(0,0)"/>
<path d="" fill="#008288" transform="translate(0,0)"/>
<path d="" fill="#038588" transform="translate(0,0)"/>
<path d="" fill="#048187" transform="translate(0,0)"/>
<path d="" fill="#01777B" transform="translate(0,0)"/>
<path d="" fill="#037A7D" transform="translate(0,0)"/>
<path d="" fill="#018488" transform="translate(0,0)"/>
<path d="" fill="#00868B" transform="translate(0,0)"/>
<path d="" fill="#01898D" transform="translate(0,0)"/>
<path d="" fill="#017171" transform="translate(0,0)"/>
<path d="" fill="#04898C" transform="translate(0,0)"/>
<path d="" fill="#028C8E" transform="translate(0,0)"/>
<path d="" fill="#018082" transform="translate(0,0)"/>
<path d="" fill="#029B9D" transform="translate(0,0)"/>
<path d="" fill="#059495" transform="translate(0,0)"/>
<path d="" fill="#02A6A9" transform="translate(0,0)"/>
<path d="" fill="#02AFB1" transform="translate(0,0)"/>
<path d="" fill="#05B6B7" transform="translate(0,0)"/>
<path d="" fill="#02B7BA" transform="translate(0,0)"/>
<path d="" fill="#02BFC3" transform="translate(0,0)"/>
<path d="" fill="#06C8CD" transform="translate(0,0)"/>
<path d="" fill="#03C5C7" transform="translate(0,0)"/>
<path d="" fill="#029698" transform="translate(0,0)"/>
<path d="" fill="#039898" transform="translate(0,0)"/>
<path d="" fill="#009E9F" transform="translate(0,0)"/>
<path d="" fill="#01A1A2" transform="translate(0,0)"/>
<path d="" fill="#01BEBE" transform="translate(0,0)"/>
<path d="" fill="#01BDC2" transform="translate(0,0)"/>
<path d="" fill="#00C8CB" transform="translate(0,0)"/>
<path d="" fill="#00BFC6" transform="translate(0,0)"/>
<path d="" fill="#011310" transform="translate(0,0)"/>
<path d="" fill="#021818" transform="translate(0,0)"/>
<path d="" fill="#13181A" transform="translate(0,0)"/>
<path d="" fill="#141A19" transform="translate(0,0)"/>
<path d="" fill="#151B1C" transform="translate(0,0)"/>
<path d="" fill="#1D2023" transform="translate(0,0)"/>
<path d="" fill="#1B1E20" transform="translate(0,0)"/>
<path d="" fill="#1B1E1F" transform="translate(0,0)"/>
<path d="" fill="#1B1E1F" transform="translate(0,0)"/>
<path d="" fill="#1E2021" transform="translate(0,0)"/>
</svg>
